<?xml version="1.0" encoding="UTF-8"?>
<svg width="374px" height="374px" viewBox="0 0 374 374" version="1.1" xmlns="http://www.w3.org/2000/svg" xmlns:xlink="http://www.w3.org/1999/xlink">
    <!-- Generator: Sketch 50.2 (55047) - http://www.bohemiancoding.com/sketch -->
    <title>tuna-topf-turtle</title>
    <desc>Artwork by https://github.com/killercup https://www.freepik.com/free-vector/green-animals-cartoons_763099.htm https://www.freepik.com/free-vector/bakery-logos-pack_831730.htm https://www.freepik.com/free-vector/sea-animals-collection_965169.htm</desc>
    <defs></defs>
    <g id="tuna-topf-turtle" stroke="none" stroke-width="1" fill="none" fill-rule="evenodd">
        <g id="shiny" fill="#A45633">
            <path d="M194.997111,38.503311 C195.105469,36.616219 192.13025,36.4450773 192.021893,38.3355695 C191.649558,44.7743501 190.389615,51.805893 191.359068,58.2027382 C191.506619,59.1978534 193.108925,59.2896579 193.370597,58.3183438 C195.06397,52.065439 194.628235,44.9420916 194.997111,38.503311" id="Fill-153"></path>
            <path d="M195.997678,8.97984485 C196.077674,7.74561198 194.064453,7.64246952 193.99779,8.86974896 C193.608721,15.9796256 192.713014,23.2656557 193.091175,30.380168 C193.132384,31.164746 194.226868,31.2226912 194.355346,30.4497022 C195.571035,23.4197899 195.54437,16.0862448 195.997678,8.97984485" id="Fill-154"></path>
            <path d="M179.906415,0.486557454 C179.827729,-0.185719313 178.732778,-0.151930706 178.693989,0.529667056 C178.365947,6.71298213 177.846178,12.8042524 178.043447,19.0038792 C178.24404,25.2815694 178.518886,31.5336268 178.995433,37.8019959 C179.122882,39.4634633 181.955569,39.366758 181.975517,37.6982999 C182.055311,31.4124538 181.931187,25.1510754 181.731702,18.871055 C181.534434,12.6714282 180.622344,6.63142343 179.906415,0.486557454" id="Fill-155"></path>
            <path d="M181.273929,42.7500232 C181.122977,41.7120348 179.472875,41.7670434 179.384147,42.818186 C179.14562,45.753971 178.532593,48.5438636 179.645721,51.4234442 C179.961453,52.2258522 181.313108,52.1792145 181.567767,51.3552813 C182.496526,48.4135171 181.703739,45.6666747 181.273929,42.7500232" id="Fill-156"></path>
            <path d="M179.002952,334.495732 C178.893411,336.386304 181.868319,336.554053 181.97786,334.661214 C182.350301,328.221028 183.609448,321.19259 182.642026,314.797742 C182.493281,313.802584 180.89052,313.709643 180.628774,314.682131 C178.934921,320.933033 179.371933,328.060081 179.002952,334.495732" id="Fill-157"></path>
            <path d="M178.002322,365.017495 C177.922337,366.252864 179.935274,366.36064 180.001927,365.127589 C180.390941,358.017846 181.287734,350.731953 180.908415,343.621052 C180.868423,342.836488 179.772881,342.776226 179.645634,343.549201 C178.428904,350.577822 178.455565,357.911229 178.002322,365.017495" id="Fill-158"></path>
            <path d="M194.09434,373.512678 C194.173012,374.187284 195.266667,374.151165 195.306558,373.468403 C195.633435,367.287426 196.153116,361.198494 195.956989,354.998875 C195.755322,348.721192 195.481631,342.463317 195.004057,336.199616 C194.877738,334.53582 192.045536,334.632525 192.023375,336.304477 C191.945811,342.59148 192.069913,348.849356 192.268256,355.130533 C192.466599,361.330153 193.378533,367.37015 194.09434,373.512678" id="Fill-159"></path>
            <path d="M191.725231,331.250955 C191.876239,332.287634 193.528103,332.232631 193.615711,331.182799 C193.854326,328.247335 194.46758,325.452964 193.354041,322.579676 C193.039345,321.771377 191.686038,321.821596 191.432437,322.647831 C190.503336,325.588079 191.296415,328.333426 191.725231,331.250955" id="Fill-160"></path>
            <path d="M156.12903,42.1430432 C155.714415,40.263758 152.622536,40.8667434 153.038374,42.7540991 C154.45467,49.1736449 155.128572,56.4106222 157.908573,62.4416287 C158.336641,63.3824242 160.003663,63.0584493 159.999994,62.0357953 C159.987763,55.4559914 157.552664,48.5718125 156.12903,42.1430432" id="Fill-161"></path>
            <path d="M148.916502,11.7481488 C148.670856,10.5149453 146.76651,10.9185392 147.023854,12.1423019 C148.519959,19.2346975 149.587936,26.6280184 151.798755,33.5268778 C152.040892,34.291582 153.077287,34.0720836 152.995405,33.2778769 C152.292388,26.0603908 150.35178,18.8535255 148.916502,11.7481488" id="Fill-162"></path>
            <path d="M132.232582,8.33107508 C131.978731,7.70840544 130.878318,8.03988207 131.011066,8.69823148 C132.279161,14.6843771 133.328337,20.6348429 135.132082,26.5001377 C136.959116,32.4344901 138.854853,38.3297099 140.960193,44.1823441 C141.520297,45.7326879 144.369725,44.8786752 143.959836,43.2834439 C142.411107,37.2604675 140.665585,31.3215113 138.839715,25.3825551 C137.038299,19.5207132 134.548689,14.0041594 132.232582,8.33107508" id="Fill-163"></path>
            <path d="M144.71058,49.4763194 C144.329166,48.5857774 142.845649,49.0460575 143.013126,50.0166482 C143.485301,52.7116217 143.579304,55.3687943 145.262712,57.6735303 C145.734887,58.3183672 146.949361,57.9392475 146.988259,57.135425 C147.140609,54.2570066 145.779188,51.9867361 144.71058,49.4763194" id="Fill-164"></path>
            <path d="M217.869761,331.853035 C218.283154,333.736822 221.377493,333.135025 220.961653,331.245473 C219.546574,324.826301 218.871446,317.589745 216.093879,311.560242 C215.667032,310.616043 213.997557,310.942304 214.000003,311.964899 C214.009787,318.54432 216.447343,325.43271 217.869761,331.853035" id="Fill-165"></path>
            <path d="M224.083664,361.251023 C224.330506,362.484249 226.237384,362.083008 225.975335,360.858043 C224.484928,353.761978 223.414502,346.372064 221.203459,339.46954 C220.960127,338.710722 219.924797,338.927864 220.004348,339.718545 C220.709776,346.939702 222.651751,354.145518 224.083664,361.251023" id="Fill-166"></path>
            <path d="M241.766536,364.668858 C242.022748,365.291535 243.125621,364.961205 242.988198,364.297093 C241.719952,358.312026 240.674145,352.361489 238.870184,346.499577 C237.041768,340.564002 235.14464,334.66641 233.040214,328.817159 C232.476549,327.267947 229.630275,328.120819 230.040213,329.71607 C231.589126,335.735665 233.332527,341.676995 235.162109,347.616022 C236.964904,353.477934 239.453647,358.996856 241.766536,364.668858" id="Fill-167"></path>
            <path d="M229.288683,323.520548 C229.670125,324.414493 231.151588,323.95529 230.987341,322.989074 C230.514051,320.290561 230.420041,317.632076 228.73543,315.327166 C228.264301,314.680057 227.048658,315.062541 227.011919,315.866424 C226.858478,318.74506 228.217837,321.007718 229.288683,323.520548" id="Fill-168"></path>
            <path d="M119.944034,54.7848116 C119.043447,53.0959894 116.278131,54.4114094 117.177518,56.1059063 C120.247427,61.8737788 122.835264,68.5916138 127.088766,73.6592152 C127.747118,74.4514181 129.2413,73.7409324 128.966687,72.7694057 C127.181104,66.5169048 123.022337,60.554954 119.944034,54.7848116" id="Fill-169"></path>
            <path d="M105.781808,27.5186053 C105.246896,26.398444 103.562831,27.2804977 104.106809,28.3912754 C107.269814,34.8096238 110.107566,41.6314648 113.888214,47.6791629 C114.305263,48.3489137 115.223226,47.8750445 114.950104,47.1290522 C112.495403,40.3811067 108.889282,33.9674501 105.781808,27.5186053" id="Fill-170"></path>
            <path d="M87.1529598,29.2070215 C86.740092,28.6738195 85.7543847,29.2700884 86.056684,29.8720908 C88.876183,35.3084583 91.4757211,40.7677593 94.7880737,45.9518592 C98.1380667,51.2013193 101.546873,56.3865659 105.150938,61.4812255 C106.104886,62.8297106 108.660903,61.2851447 107.839872,59.8552459 C104.735718,54.4509851 101.463358,49.1808849 98.1074839,43.9325714 C94.79866,38.7496182 90.9122918,34.0734936 87.1529598,29.2070215" id="Fill-171"></path>
            <path d="M110.659196,65.3240167 C110.037432,64.4938329 108.655734,65.4091014 109.079304,66.3814983 C110.267338,69.0908391 111.064645,71.8731096 113.377291,73.8166879 C114.029634,74.3600146 115.155378,73.6039761 114.982099,72.7458358 C114.376191,69.6609067 112.399909,67.6626312 110.659196,65.3240167" id="Fill-172"></path>
            <path d="M254.054532,318.214347 C254.952969,319.904327 257.723851,318.588889 256.821815,316.895504 C253.752253,311.127553 251.161299,304.411896 246.907815,299.34082 C246.249281,298.548607 244.755883,299.259102 245.034171,300.229507 C246.815452,306.483228 250.976573,312.4498 254.054532,318.214347" id="Fill-173"></path>
            <path d="M268.216954,345.481932 C268.758636,346.599744 270.441478,345.722384 269.89073,344.609264 C266.732427,338.188588 263.893694,331.369112 260.10985,325.319086 C259.696222,324.649337 258.778308,325.131415 259.049149,325.866849 C261.505985,332.615948 265.110779,339.031932 268.216954,345.481932" id="Fill-174"></path>
            <path d="M286.84661,343.794567 C287.263033,344.325438 288.251157,343.728065 287.940604,343.128398 C285.120923,337.690123 282.523571,332.231209 279.214534,327.048623 C275.860797,321.802975 272.449419,316.61351 268.848651,311.516919 C267.891113,310.170822 265.338461,311.717572 266.160721,313.147369 C269.262722,318.548954 272.536468,323.820973 275.891382,329.070061 C279.202771,334.250354 283.089389,338.926147 286.84661,343.794567" id="Fill-175"></path>
            <path d="M263.342964,308.673538 C263.963583,309.508553 265.341856,308.589672 264.921692,307.623388 C263.73255,304.906855 262.934126,302.125903 260.62266,300.183612 C259.971464,299.640306 258.84461,300.393885 259.017885,301.254425 C259.622649,304.336809 261.597757,306.336226 263.342964,308.673538" id="Fill-176"></path>
            <path d="M87.6347512,76.4853991 C86.3406612,75.0856875 84.0937668,77.0187298 85.3890216,78.4251924 C89.8024394,83.1981642 94.0143473,89.0040421 99.3537791,92.8239947 C100.180785,93.4203349 101.392175,92.3795525 100.876169,91.5187974 C97.5413542,85.9649576 92.0528282,81.2673722 87.6347512,76.4853991" id="Fill-177"></path>
            <path d="M66.6897054,54.3262199 C65.8668664,53.3818038 64.4184363,54.6959286 65.2482782,55.63205 C70.0475889,61.0425948 74.6263088,66.9318649 79.9485016,71.807991 C80.536744,72.3507044 81.3234014,71.6361713 80.8600439,70.989181 C76.6828228,65.063177 71.4423302,59.7829783 66.6897054,54.3262199" id="Fill-178"></path>
            <path d="M49.9992296,60.1113912 C49.4681686,59.7002857 48.6871966,60.5224967 49.1314829,61.0286489 C53.2307183,65.5611157 57.1263224,70.1760325 61.6270352,74.3386189 C66.1798128,78.5596074 70.7742423,82.7027263 75.5283371,86.714154 C76.7859913,87.7734091 78.8107336,85.6331412 77.657209,84.4582269 C73.2964927,80.0356937 68.8131348,75.7711898 64.2522582,71.5547819 C59.7584874,67.3899053 54.8412561,63.8605818 49.9992296,60.1113912" id="Fill-179"></path>
            <path d="M81.5557012,89.1554612 C80.7009968,88.5788313 79.5208054,89.7376249 80.2043279,90.4869117 C82.1222895,92.5665422 83.6556944,94.8121889 86.534445,95.9399928 C87.3397237,96.248783 88.3053348,95.3002767 87.9075175,94.5908339 C86.4934578,92.0297562 83.9474271,90.7735664 81.5557012,89.1554612" id="Fill-180"></path>
            <path d="M286.364408,296.513595 C287.65863,297.915549 289.905753,295.980267 288.611532,294.578313 C284.197665,289.803118 279.984163,283.996147 274.647682,280.176216 C273.819427,279.578754 272.605584,280.622906 273.125137,281.481406 C276.456797,287.04084 281.945882,291.737274 286.364408,296.513595" id="Fill-181"></path>
            <path d="M306.308637,319.672201 C307.136096,320.619049 308.584442,319.306023 307.748813,318.372211 C302.953284,312.957759 298.372498,307.072846 293.051783,302.190478 C292.463575,301.650099 291.680465,302.365864 292.136793,303.012896 C296.316104,308.936915 301.55629,314.219828 306.308637,319.672201" id="Fill-182"></path>
            <path d="M322.999585,312.889096 C323.53639,313.299087 324.316146,312.476815 323.864952,311.976351 C319.767185,307.436673 315.874191,302.824846 311.378448,298.660803 C306.820231,294.442934 302.223837,290.296069 297.47126,286.286631 C296.210231,285.226151 294.189113,287.364289 295.343707,288.537001 C299.704092,292.962156 304.188266,297.225834 308.747639,301.444848 C313.246853,305.611182 318.159083,309.139625 322.999585,312.889096" id="Fill-183"></path>
            <path d="M292.442934,283.844099 C293.297663,284.421106 294.476683,283.264876 293.797963,282.519529 C291.876329,280.429677 290.340469,278.183668 287.468868,277.062878 C286.658744,276.746133 285.695516,277.693045 286.09214,278.407383 C287.503829,280.96903 290.048728,282.224934 292.442934,283.844099" id="Fill-184"></path>
            <path d="M62.2683307,106.264324 C60.6782518,105.170811 59.0619378,107.753846 60.6554386,108.848556 C66.0826949,112.584924 71.5886566,117.424376 77.6432753,119.930841 C78.5808971,120.325654 79.4523607,118.934237 78.7371674,118.181699 C74.1277638,113.364979 67.7047122,110.000692 62.2683307,106.264324" id="Fill-185"></path>
            <path d="M36.5075765,90.1605869 C35.4566651,89.4961609 34.3772866,91.0664171 35.4317564,91.7229466 C41.5462578,95.4985553 47.5646827,99.762613 54.0528151,102.91779 C54.77161,103.268616 55.3611168,102.41242 54.7360261,101.934124 C49.0995352,97.5313151 42.586494,93.9858301 36.5075765,90.1605869" id="Fill-186"></path>
            <path d="M21.8463621,100.043225 C21.2173941,99.7776825 20.6705675,100.80666 21.2373427,101.19549 C26.4580116,104.63806 31.496796,108.224069 37.0143472,111.194827 C42.5917441,114.204704 48.1902631,117.129229 53.9108207,119.875934 C55.4269151,120.603805 56.8397462,117.928227 55.3999258,117.062843 C49.9516081,113.788608 44.4305367,110.718273 38.8449256,107.710766 C33.3379355,104.737638 27.5845214,102.511348 21.8463621,100.043225" id="Fill-187"></path>
            <path d="M59.2736295,119.061568 C58.3064909,118.673836 57.5082177,120.21987 58.363173,120.838773 C60.752088,122.552374 62.8221661,124.550965 65.8558401,124.991291 C66.704891,125.117273 67.3567353,123.84522 66.7828289,123.194516 C64.7410919,120.83388 61.9825622,120.16116 59.2736295,119.061568" id="Fill-188"></path>
            <path d="M310.729471,267.735772 C312.321746,268.829262 313.939115,266.245086 312.343418,265.150401 C306.91759,261.420096 301.40964,256.575963 295.357624,254.068356 C294.420052,253.675944 293.546353,255.068527 294.26379,255.816263 C298.869527,260.637665 305.2968,264.00786 310.729471,267.735772" id="Fill-189"></path>
            <path d="M337.487724,283.840203 C338.547069,284.502325 339.624208,282.934438 338.564863,282.280212 C332.451978,278.502619 326.433995,274.238869 319.94506,271.081664 C319.230921,270.731991 318.642528,271.589253 319.258206,272.066387 C324.898953,276.470006 331.411613,280.017491 337.487724,283.840203" id="Fill-190"></path>
            <path d="M352.153295,273.954813 C352.786934,274.227513 353.332568,273.192439 352.756426,272.814216 C347.540634,269.36397 342.502026,265.78093 336.994056,262.809687 C331.408641,259.801689 325.805625,256.871943 320.088789,254.122417 C318.573921,253.400355 317.156446,256.071628 318.60443,256.937154 C324.045516,260.209553 329.569913,263.285133 335.154155,266.290761 C340.666819,269.264375 346.417684,271.4934 352.153295,273.954813" id="Fill-191"></path>
            <path d="M313.726887,253.937719 C314.692791,254.327858 315.489839,252.781976 314.639654,252.164357 C312.248511,250.4497 310.175006,248.454973 307.148586,248.008576 C306.29604,247.883829 305.641871,249.150865 306.218107,249.806397 C308.260911,252.169249 311.013382,252.841903 313.726887,253.937719" id="Fill-192"></path>
            <path d="M45.9725236,141.08552 C44.0989328,140.469363 43.1390578,143.363646 45.0173829,143.983344 C51.41221,146.089136 58.1727601,149.224216 64.8800496,149.992641 C65.9239581,150.120121 66.4388109,148.556123 65.5310129,148.034396 C59.6758936,144.679766 52.3768193,143.191312 45.9725236,141.08552" id="Fill-193"></path>
            <path d="M17.2350998,132.053744 C16.0650315,131.671494 15.4614248,133.440796 16.6326539,133.811868 C23.4151038,135.932124 30.2463066,138.547516 37.2191247,139.981511 C37.9898841,140.144693 38.3195462,139.182363 37.6033436,138.876117 C31.1006422,136.037187 23.9978165,134.233237 17.2350998,132.053744" id="Fill-194"></path>
            <path d="M4.65944854,145.005698 C3.98979446,144.909098 3.72472305,146.069512 4.36880007,146.303768 C10.2398992,148.297361 15.9714871,150.482948 22.0041868,151.937993 C28.1066422,153.409944 34.2067723,154.800991 40.3789833,155.977103 C42.0147529,156.291054 42.6855696,153.28074 41.0893282,152.81102 C35.0438399,151.043231 28.9809128,149.494 22.8703193,148.02205 C16.8469203,146.562174 10.775855,145.906498 4.65944854,145.005698" id="Fill-195"></path>
            <path d="M46.9317111,155.005964 C45.9740186,154.887173 45.6163924,156.578119 46.5258162,156.946612 C49.0675956,157.955119 51.3888753,159.315149 54.21149,158.934535 C55.0079215,158.827866 55.2953389,157.437532 54.629452,156.966007 C52.2478365,155.248393 49.6182961,155.33688 46.9317111,155.005964" id="Fill-196"></path>
            <path d="M328.02487,232.91484 C329.900954,233.529633 330.862077,230.635036 328.981258,230.016704 C322.587185,227.911543 315.824997,224.775041 309.11844,224.006846 C308.079196,223.884124 307.558391,225.445294 308.470984,225.965684 C314.322946,229.32167 321.623695,230.809679 328.02487,232.91484" id="Fill-197"></path>
            <path d="M356.75906,240.948658 C357.937307,241.32073 358.53978,239.56093 357.363855,239.193327 C350.57762,237.069276 343.755399,234.452482 336.778787,233.017825 C336.010315,232.858047 335.68296,233.816719 336.392229,234.125103 C342.897543,236.957543 349.998364,238.76874 356.75906,240.948658" id="Fill-198"></path>
            <path d="M368.338748,228.994312 C369.01302,229.090908 369.275754,227.928135 368.627058,227.709587 C362.757404,225.702808 357.027254,223.518534 351.00182,222.067181 C344.893846,220.592886 338.790522,219.203113 332.620933,218.022229 C330.98873,217.713122 330.308645,220.722083 331.917598,221.190573 C337.952332,222.953448 344.019618,224.507434 350.126429,225.979314 C356.157676,227.434289 362.223799,228.095971 368.338748,228.994312" id="Fill-199"></path>
            <path d="M326.065109,218.993793 C327.027214,219.115073 327.381558,217.423221 326.477597,217.055743 C323.930269,216.04427 321.610028,214.684725 318.787343,215.065543 C317.994183,215.172269 317.70237,216.559709 318.372662,217.036338 C320.751045,218.754872 323.378457,218.667551 326.065109,218.993793" id="Fill-200"></path>
            <path d="M38.5026834,179.003143 C36.6134109,178.890033 36.4468104,181.866676 38.3383496,181.978632 C44.7745694,182.354897 51.809191,183.61065 58.2012107,182.638826 C59.2019471,182.498016 59.2869474,180.89139 58.316811,180.627082 C52.0687251,178.935046 44.9479699,179.374791 38.5026834,179.003143" id="Fill-201"></path>
            <path d="M8.97781131,178.002533 C7.74827031,177.918854 7.64049716,179.935636 8.87003816,180.005975 C15.9807484,180.395264 23.267604,181.289051 30.3759965,180.907039 C31.1628564,180.869444 31.2254344,179.770704 30.450163,179.644579 C23.4194135,178.426991 16.085045,178.454884 8.97781131,178.002533" id="Fill-202"></path>
            <path d="M0.485958363,194.090321 C-0.185130436,194.168977 -0.152508064,195.263506 0.530231583,195.308927 C6.71217111,195.632411 12.8055642,196.155304 19.0061451,195.955895 C25.2824565,195.756487 31.533136,195.482855 37.8047871,195.000952 C39.4638677,194.876876 39.3636704,192.044172 37.7034247,192.023123 C31.4073069,191.946684 25.1484717,192.067436 18.8709953,192.272384 C12.6727445,192.461821 6.63178027,193.377991 0.485958363,194.090321" id="Fill-203"></path>
            <path d="M42.7494,191.724595 C41.7114836,191.87783 41.7676841,193.528845 42.8187538,193.615256 C45.7519437,193.850292 48.5440344,194.472447 51.4162407,193.350264 C52.2281591,193.038034 52.1791331,191.68427 51.3564529,191.431952 C48.4101097,190.503328 45.662262,191.297152 42.7494,191.724595" id="Fill-204"></path>
            <path d="M334.498525,194.997049 C336.384813,195.106584 336.554851,192.130689 334.660628,192.020001 C328.225257,191.648735 321.189085,190.390811 314.795656,191.358179 C313.802634,191.50461 313.70968,193.11074 314.683431,193.369012 C320.929493,195.067382 328.052951,194.628089 334.498525,194.997049" id="Fill-205"></path>
            <path d="M365.017699,195.99808 C366.253174,196.070683 366.3598,194.060777 365.128961,193.999065 C358.01397,193.607006 350.735563,192.712773 343.617095,193.091521 C342.83826,193.132663 342.777992,194.228975 343.542921,194.356032 C350.576783,195.566089 357.910821,195.543098 365.017699,195.99808" id="Fill-206"></path>
            <path d="M373.512228,179.909695 C374.189128,179.82654 374.149516,178.730002 373.467956,178.700067 C367.287306,178.367446 361.194036,177.84745 354.999406,178.042587 C348.718561,178.245486 342.462183,178.519343 336.195319,178.993881 C334.538602,179.124712 334.631806,181.958636 336.302504,181.976376 C342.585679,182.053987 348.850213,181.932026 355.127563,181.732454 C361.330348,181.536208 367.36653,180.624829 373.512228,179.909695" id="Fill-207"></path>
            <path d="M331.247719,181.276341 C332.289335,181.121957 332.231933,179.472116 331.183141,179.379946 C328.24724,179.148369 325.454846,178.529679 322.583523,179.649543 C321.772712,179.962921 321.819352,181.312057 322.645709,181.566677 C325.588785,182.497592 328.33454,181.702627 331.247719,181.276341" id="Fill-208"></path>
            <path d="M42.1474866,217.867621 C40.262775,218.284453 40.8656522,221.372192 42.7526692,220.962693 C49.175674,219.54473 56.4090472,218.86753 62.4412769,216.090277 C63.3865145,215.668555 63.0533759,213.997558 62.0332109,214.000003 C55.4568932,214.013449 48.5774078,216.448435 42.1474866,217.867621" id="Fill-209"></path>
            <path d="M11.7480702,224.078764 C10.513752,224.325468 10.9196846,226.226606 12.1445625,225.977564 C19.236582,224.480973 26.6318708,223.411144 33.5256442,221.201334 C34.2891278,220.958138 34.0755412,219.91754 33.2801966,220.005231 C26.0607331,220.705588 18.8518901,222.648818 11.7480702,224.078764" id="Fill-210"></path>
            <path d="M8.33176108,241.766873 C7.71025927,242.019544 8.03597226,243.118724 8.69890752,242.989477 C14.6837398,241.719133 20.6374969,240.677008 26.5014816,238.866389 C32.4402767,237.042962 38.3284309,235.146179 44.1843591,233.04097 C45.7335099,232.480901 44.8749166,229.629322 43.2854833,230.04035 C37.2569157,231.588982 31.3181206,233.33556 25.3816274,235.161316 C19.5222465,236.959126 13.9989369,239.452075 8.33176108,241.766873" id="Fill-211"></path>
            <path d="M49.4785284,229.288427 C48.5845646,229.669653 49.047113,231.152439 50.0111263,230.987205 C52.7063607,230.515262 55.3715738,230.421305 57.6698616,228.732247 C58.3214322,228.261384 57.9378283,227.049669 57.1350399,227.01187 C54.2563428,226.858516 51.9891882,228.222506 49.4785284,229.288427" id="Fill-212"></path>
            <path d="M331.854347,156.13157 C333.737222,155.718319 333.134195,152.622611 331.243248,153.038306 C324.824408,154.452893 317.586927,155.131455 311.556653,157.906834 C310.616945,158.333533 310.943249,160.006096 311.965974,159.999983 C318.540471,159.991425 325.428589,157.553493 331.854347,156.13157" id="Fill-213"></path>
            <path d="M361.250715,148.920763 C362.483994,148.665644 362.083916,146.761614 360.856537,147.024925 C353.758983,148.51819 346.374648,149.586647 339.470642,151.798459 C338.709431,152.040705 338.930123,153.075224 339.713757,152.995646 C346.93995,152.289973 354.14608,150.352004 361.250715,148.920763" id="Fill-214"></path>
            <path d="M364.666691,132.228634 C365.291587,131.968809 364.962453,130.866594 364.30073,131.013401 C358.313006,132.276404 352.358656,133.326189 346.503277,135.126318 C340.565038,136.959071 334.667078,138.855907 328.815151,140.958971 C327.268447,141.519399 328.121206,144.372809 329.719697,143.959187 C335.73389,142.40723 341.680184,140.667688 347.618423,138.837265 C353.479556,137.03364 358.995443,134.543752 364.666691,132.228634" id="Fill-215"></path>
            <path d="M323.518474,144.712706 C324.416979,144.331365 323.953271,142.850294 322.988045,143.012336 C320.293642,143.489823 317.629264,143.583807 315.329625,145.264731 C314.68021,145.741137 315.059406,146.951057 315.866726,146.987787 C318.741275,147.143348 321.008665,145.781108 323.518474,144.712706" id="Fill-216"></path>
            <path d="M54.7878054,254.055397 C53.0946367,254.953682 54.4099065,257.722896 56.1064797,256.822212 C61.8770984,253.751971 68.5873575,251.159056 73.6566502,246.909889 C74.4555716,246.249068 73.7360884,244.755923 72.7680771,245.034164 C66.5208292,246.816343 60.5606937,250.97676 54.7878054,254.055397" id="Fill-217"></path>
            <path d="M27.5163288,268.218966 C26.3986405,268.751527 27.2829395,270.438728 28.393591,269.892569 C34.8123823,266.733459 41.6334476,263.893886 47.6792852,260.111566 C48.3489599,259.691182 47.8739717,258.77223 47.1339284,259.052108 C40.3808861,261.503025 33.9644404,265.110846 27.5163288,268.218966" id="Fill-218"></path>
            <path d="M29.2068783,286.844837 C28.6748751,287.2565 29.2676459,288.243316 29.8718822,287.944566 C35.305423,285.121733 40.7722139,282.528255 45.9523653,279.207898 C51.2001636,275.860488 56.3826081,272.449565 61.4836469,268.846924 C62.8297066,267.895394 61.2795595,265.34073 59.8532407,266.159352 C54.450657,269.265644 49.1764878,272.537778 43.9286895,275.891069 C38.7508313,279.196136 34.0728726,283.090469 29.2068783,286.844837" id="Fill-219"></path>
            <path d="M65.3256175,263.343565 C64.4917987,263.964083 65.4107011,265.340999 66.3818691,264.922036 C69.0911726,263.731955 71.8758359,262.939323 73.81331,260.622571 C74.3639222,259.973745 73.6030321,258.843678 72.7473346,259.018057 C69.660017,259.620458 67.6641999,261.599774 65.3256175,263.343565" id="Fill-220"></path>
            <path d="M318.21313,119.944434 C319.90547,119.044772 318.588827,116.273814 316.891947,117.179474 C311.123688,120.245521 304.405404,122.840145 299.338598,127.092546 C298.549747,127.751099 299.26028,129.246936 300.230737,128.965042 C306.480251,127.184912 312.448276,123.023676 318.21313,119.944434" id="Fill-221"></path>
            <path d="M345.481028,105.785857 C346.600023,105.241732 345.722656,103.556076 344.611872,104.110404 C338.185273,107.269733 331.370428,110.102587 325.316828,113.891061 C324.650591,114.308224 325.132674,115.220767 325.86225,114.950972 C332.614929,112.497873 339.030971,108.888506 345.481028,105.785857" id="Fill-222"></path>
            <path d="M343.792162,87.1464518 C344.327563,86.7276091 343.72796,85.7428582 343.129504,86.0628728 C337.689515,88.8771192 332.226597,91.4701789 327.052589,94.7820951 C321.802914,98.1375427 316.614001,101.548287 311.516806,105.151981 C310.172,106.103789 311.713999,108.665083 313.152816,107.837986 C318.543506,104.731962 323.818404,101.461224 329.069225,98.1046 C334.24782,94.7903308 338.924261,90.9054472 343.792162,87.1464518" id="Fill-223"></path>
            <path d="M308.673551,110.659996 C309.509807,110.039607 308.587251,108.657316 307.616076,109.078457 C304.911615,110.273951 302.125717,111.067551 300.184582,113.375897 C299.640043,114.027985 300.391215,115.154422 301.255427,114.982343 C304.33912,114.378935 306.333736,112.404558 308.673551,110.659996" id="Fill-224"></path>
            <path d="M76.4874107,286.36291 C75.0846014,287.66073 77.016136,289.906869 78.4211951,288.610213 C83.1999713,284.199487 88.9979497,279.984481 92.8227705,274.647572 C93.4234923,273.81692 92.3739165,272.606475 91.5133318,273.124904 C85.9650917,276.456832 81.2661869,281.945193 76.4874107,286.36291" id="Fill-225"></path>
            <path d="M54.3255593,306.311775 C53.3822944,307.128686 54.6964662,308.578119 55.632621,307.755373 C61.0409887,302.953104 66.9340239,298.378403 71.8067688,293.055645 C72.3506866,292.465135 71.639683,291.675065 70.9914846,292.140704 C65.0652693,296.319787 59.7825122,301.563189 54.3255593,306.311775" id="Fill-226"></path>
            <path d="M60.1114706,322.999022 C59.7003829,323.531185 60.5214132,324.310921 61.0309788,323.87015 C65.5609592,319.766706 70.1825469,315.874969 74.3415178,311.372402 C78.5600334,306.817775 82.7018279,302.222657 86.7142272,297.466733 C87.7734364,296.212678 85.6321161,294.19277 84.4641231,295.340392 C80.0326206,299.704135 75.7694464,304.190506 71.554366,308.743976 C67.3919598,313.238445 63.8593538,318.158646 60.1114706,322.999022" id="Fill-227"></path>
            <path d="M89.1558001,292.439784 C88.5787033,293.295755 89.7362199,294.479647 90.4850057,293.796076 C92.5707508,291.875566 94.8193236,290.340847 95.9358562,287.466713 C96.2570809,286.65776 95.3033759,285.693286 94.5944663,286.093543 C92.0313148,287.502881 90.7741079,290.046682 89.1558001,292.439784" id="Fill-228"></path>
            <path d="M296.513765,87.6349767 C297.914677,86.3391094 295.982656,84.0923178 294.576118,85.3905158 C289.79839,89.8001938 283.994452,94.0175893 280.17542,99.3548845 C279.579048,100.182282 280.625513,101.396575 281.484063,100.873333 C287.037075,97.546264 291.740538,92.0563081 296.513765,87.6349767" id="Fill-229"></path>
            <path d="M319.673541,66.694604 C320.618038,65.8682383 319.304985,64.4162624 318.371153,65.2496312 C312.954216,70.0502557 307.070364,74.6209451 302.187892,79.9514707 C301.652242,80.5373967 302.368022,81.3194094 303.006772,80.8630408 C308.932102,76.684525 314.217497,71.4438724 319.673541,66.694604" id="Fill-230"></path>
            <path d="M312.889209,49.995761 C313.29918,49.458827 312.475802,48.6811985 311.975363,49.1382867 C307.437052,53.2312512 302.819725,57.1240226 298.661612,61.6243163 C294.440514,66.1824692 290.293852,70.7788093 286.286901,75.5313694 C285.226473,76.7892298 287.36107,78.8143041 288.539451,77.6536473 C292.957518,73.3014733 297.224423,68.8115943 301.444376,64.2499697 C305.60707,59.7508332 309.139921,54.8374244 312.889209,49.995761" id="Fill-231"></path>
            <path d="M283.842795,81.5604091 C284.42418,80.7035232 283.260304,79.5212376 282.511702,80.2033718 C280.435329,82.1268456 278.187309,83.6574294 277.062192,86.5317935 C276.747691,87.3428824 277.692302,88.3058245 278.408789,87.9069085 C280.970203,86.4980483 282.2271,83.9514943 283.842795,81.5604091" id="Fill-232"></path>
            <path d="M106.265992,310.729173 C105.168901,312.321438 107.749517,313.937655 108.85259,312.34539 C112.586528,306.916177 117.418752,301.409404 119.929978,295.358569 C120.328376,294.417581 118.929795,293.548451 118.179657,294.262461 C113.368967,298.871589 109.999929,305.291976 106.265992,310.729173" id="Fill-233"></path>
            <path d="M90.1603787,337.494145 C89.495866,338.545108 91.0697118,339.623352 91.7206859,338.566459 C95.4967875,332.459966 99.7681709,326.434133 102.916991,319.946874 C103.268991,319.232789 102.417196,318.637323 101.938837,319.26363 C97.5331972,324.903951 93.9883776,331.417307 90.1603787,337.494145" id="Fill-234"></path>
            <path d="M100.045368,352.151538 C99.7727188,352.781623 100.801673,353.330748 101.196421,352.761676 C104.636541,347.541473 108.226025,342.504311 111.189601,336.988425 C114.200595,331.405659 117.123867,325.808812 119.876437,320.085245 C120.603106,318.573979 117.924033,317.161274 117.062225,318.598619 C113.788065,324.044104 110.713058,329.569377 107.709177,335.15449 C104.736117,340.656296 102.509878,346.41741 100.045368,352.151538" id="Fill-235"></path>
            <path d="M119.062324,313.725493 C118.671918,314.692763 120.218856,315.489964 120.836897,314.639617 C122.557621,312.246834 124.557381,310.180018 124.990621,307.144752 C125.121572,306.28968 123.848775,305.643653 123.198914,306.218818 C120.832001,308.259651 120.158888,311.015012 119.062324,313.725493" id="Fill-236"></path>
            <path d="M267.735878,62.2694393 C268.828434,60.6768748 266.248423,59.0626349 265.148688,60.6551995 C261.411501,66.0820115 256.572186,71.5932432 254.069959,77.6406535 C253.671469,78.5783957 255.072765,79.456816 255.813501,78.7335453 C260.633669,74.1281132 264.005872,67.7030962 267.735878,62.2694393" id="Fill-237"></path>
            <path d="M283.841791,36.5143818 C284.500465,35.4562864 282.930475,34.374467 282.28308,35.4349347 C278.5036,41.5510105 274.239139,47.5591416 271.079985,54.0571756 C270.734858,54.7724575 271.589781,55.3560706 272.061229,54.7416162 C276.462163,49.1035812 280.011558,42.5913128 283.841791,36.5143818" id="Fill-238"></path>
            <path d="M273.955771,21.8441272 C274.22489,21.2081112 273.193465,20.6671455 272.814091,21.2468354 C269.360596,26.4605239 265.77669,31.4970198 262.812826,37.007594 C259.796797,42.5920963 256.873241,48.1930271 254.12396,53.9136509 C253.397221,55.4203752 256.065884,56.8437837 256.940817,55.3980794 C260.203439,49.9579129 263.281116,44.4309102 266.291217,38.8440609 C269.258639,33.3323132 271.489836,27.5823529 273.955771,21.8441272" id="Fill-239"></path>
            <path d="M253.936178,59.2745507 C254.332349,58.3087987 252.779456,57.5118762 252.158298,58.3572044 C250.450115,60.7538751 248.453363,62.8211511 248.008281,65.8494567 C247.886006,66.7030493 249.147885,67.3582967 249.804503,66.7821512 C252.165635,64.7420296 252.836925,61.9864486 253.936178,59.2745507" id="Fill-240"></path>
            <path d="M141.085336,328.021349 C140.470328,329.897239 143.36004,330.864181 143.98213,328.982373 C146.090392,322.586594 149.219731,315.829839 149.992918,309.115691 C150.118044,308.075371 148.550423,307.56172 148.031031,308.469485 C144.677408,314.314924 143.187696,321.622019 141.085336,328.021349" id="Fill-241"></path>
            <path d="M132.053159,356.770163 C131.673162,357.93577 133.442385,358.53831 133.810088,357.365737 C135.93025,350.58455 138.549997,343.754602 139.981693,336.779533 C140.143751,336.015619 139.184816,335.675457 138.880818,336.399898 C136.039779,342.903616 134.233674,350.000585 132.053159,356.770163" id="Fill-242"></path>
            <path d="M145.005991,368.339731 C144.906956,369.010532 146.06518,369.275597 146.301898,368.630373 C148.294671,362.759411 150.486722,357.030282 151.934804,351.000049 C153.410664,344.893086 154.797151,338.795424 155.977114,332.617544 C156.291127,330.984138 153.277812,330.316825 152.81404,331.908378 C151.044698,337.954888 149.491543,344.018836 148.016891,350.125799 C146.560354,356.150219 145.902135,362.22463 145.005991,368.339731" id="Fill-243"></path>
            <path d="M155.005838,326.959234 C154.888246,328.030382 156.581813,328.426427 156.946712,327.41499 C157.958972,324.587842 159.322796,322.012944 158.931227,318.876273 C158.82697,317.990352 157.4389,317.673516 156.969745,318.40955 C155.247084,321.057563 155.334368,323.973669 155.005838,326.959234" id="Fill-244"></path>
            <path d="M232.914396,45.974388 C233.53072,44.0991299 230.638011,43.1378233 230.019326,45.0190008 C227.908239,51.4154777 224.771125,58.1789559 224.007214,64.8773209 C223.88088,65.9262342 225.448846,66.440036 225.964811,65.5272683 C229.323895,59.6812933 230.817477,52.3756004 232.914396,45.974388" id="Fill-245"></path>
            <path d="M240.94856,17.2408755 C241.321747,16.0659903 239.554136,15.4576505 239.194357,16.6371795 C237.070319,23.4241154 234.453539,30.2435579 233.017774,37.2220512 C232.857996,37.9929245 233.820015,38.3156696 234.120575,37.6063269 C236.958586,31.1073076 238.766421,24.0022704 240.94856,17.2408755" id="Fill-246"></path>
            <path d="M228.994307,4.66001757 C229.090901,3.98225073 227.929356,3.72416456 227.712019,4.37984294 C225.705274,10.2437467 223.517415,15.9762823 222.068502,21.9971304 C220.593026,28.1040072 219.204484,34.208559 218.022413,40.379376 C217.712104,42.0104341 220.718598,42.6905261 221.19191,41.0850441 C222.949925,35.053733 224.505091,28.9828953 225.981775,22.8713683 C227.433103,16.8412198 228.095981,10.7773573 228.994307,4.66001757" id="Fill-247"></path>
            <path d="M218.994292,47.0366471 C219.11056,45.9701845 217.416199,45.5765074 217.048018,46.5795917 C216.048842,49.4108976 214.68754,51.9886902 215.064199,55.1186056 C215.176833,56.0071214 216.558724,56.3301072 217.032273,55.5878492 C218.750856,52.9454595 218.662444,50.0239613 218.994292,47.0366471" id="Fill-248"></path>
        </g>
        <g id="Group-2" transform="translate(108.865006, 192.244363) rotate(-13.000000) translate(-108.865006, -192.244363) translate(38.365006, 129.244363)">
            <g id="turtle" transform="translate(3.000000, 57.000000)">
                <polyline id="Fill-76" fill="#B4CD3A" points="13.3488894 43 0 47.6665901 14 51 13.3488894 43"></polyline>
                <path d="M71.855536,38.4253231 C71.855536,38.4253231 81.1208949,40.3509304 84.3160588,36.4992734 C87.5112228,32.6476164 80.0257498,12.610772 101.356199,5.5798501 C121.804192,-1.16043907 132.241316,15.3158234 135.756173,23.9817199 C139.270589,32.6476164 137.992699,37.7830116 136.395117,39.0671922 C134.797535,40.3509304 126.810066,40.3509304 126.810066,40.3509304 C126.810066,40.3509304 126.810066,47.4123753 122.337012,48.3749578 C117.863959,49.3379826 78.565116,50.6217208 73.7723701,49.6591384 C68.9800646,48.6961135 71.855536,38.4253231 71.855536,38.4253231" id="Fill-77" fill="#B4CD3A"></path>
                <path d="M109,24 C109,21.7908934 110.790893,20 113,20 C115.209107,20 117,21.7908934 117,24 C117,26.2091066 115.209107,28 113,28 C110.790893,28 109,26.2091066 109,24" id="Fill-78" fill="#231F20"></path>
                <path d="M80,33.896113 C80,33.896113 76.1449657,35.8063262 75.5025337,40.5825173 C74.8596591,45.3582697 74.8596591,52.3632623 74.8596591,52.3632623 L10.931705,53 C10.931705,53 1.93677247,5.55843199 39.8437983,0.464091379 C77.7512669,-4.63024923 80,33.896113 80,33.896113" id="Fill-79" fill="#4DB68E"></path>
                <path d="M63,37.7059958 C56.3808554,39.3175546 49.9144603,40.2492439 43.0509165,39.9416106 C38.1093598,39.7201147 32.9827327,39.3988577 28,38.6416404 C28.6720978,34.3013747 29.4973878,29.9756117 30.5613212,25.6511672 C30.6631542,25.2363018 30.7680864,24.8209969 30.8716904,24.4061315 C35.3111662,24.8899946 39.8396352,24.8640656 44.2060568,24.6742119 C49.5735411,24.4408501 54.6864429,23.5276188 59.6979545,22 C61.3060303,27.0930882 62.3916585,32.3522983 63,37.7059958" id="Fill-80" fill="#00975D"></path>
                <path d="M55.2599068,3.77857858 C54.8928911,3.85545546 54.5245228,3.92792793 54.1557036,4 C53.176394,2.63023023 52.1204348,1.2980981 51,0 C54.3739292,0.371971972 57.3596513,1.11831832 60,2.14254254 C58.3786383,2.95215215 56.5011773,3.51831832 55.2599068,3.77857858" id="Fill-81" fill="#00975D"></path>
                <path d="M29,3.95119617 C31.3532362,2.66746411 34.0115447,1.66555024 37,1 C36.1370214,2.6430622 35.3266991,4.30861244 34.5681973,6 C32.5810479,5.59808612 30.6615995,4.95311005 29,3.95119617" id="Fill-82" fill="#00975D"></path>
                <path d="M73.4946753,34.5333656 C70.8312584,35.5154926 68.0971951,36.2890341 65.3482826,37 C64.7345133,31.5430485 63.6424179,26.1486726 62,20.9495683 C63.3161842,20.4942306 64.6292185,20.0113774 65.9373031,19.4717179 C68.7501125,18.3116275 71.8131093,16.9735738 74.1862907,15 C77.8963552,21.1040103 79.4060297,27.560397 80,31.2155249 C78.2135893,32.8158638 75.6352182,33.7442911 73.4946753,34.5333656" id="Fill-83" fill="#00975D"></path>
                <path d="M44.8170401,5.94184022 C42.5107246,6.03297923 39.7587184,6.04656245 37,5.76131488 C37.9844575,3.94773628 39.0476716,2.17885084 40.1198353,0.414347083 C43.1260106,0.0353315006 45.9075505,-0.0737724068 48.4823543,0.0467238765 C49.7357477,1.71439244 50.9144119,3.41711446 52,5.15883347 C49.62522,5.5702735 47.2258286,5.8467577 44.8170401,5.94184022" id="Fill-84" fill="#00975D"></path>
                <path d="M43.9898193,21.9151533 C39.7061278,22.0639821 35.3058733,22.0608441 31,21.5421848 C32.1430136,17.0383213 33.4721802,12.5609064 35.3750282,8.35111421 C35.4711492,8.13818148 35.575534,7.9306281 35.6746996,7.71948849 C40.1271465,8.34170034 44.6500532,8.19959576 49.0998905,7.52852145 C50.1493927,7.37027881 51.3028448,7.20665682 52.4923967,7 C54.7170978,11.0488598 56.5460066,15.2689624 58,19.6195143 C53.4466478,20.9876631 48.8228358,21.7470485 43.9898193,21.9151533" id="Fill-85" fill="#00975D"></path>
                <path d="M65,38.7080334 C66.4606324,38.2790081 67.9135953,37.8200206 69.3597407,37.3401897 C72.254162,36.3800937 76.1758834,35.1694435 78.947165,33 C78.9867912,33.4103531 79,33.6361559 79,33.6361559 C79,33.6361559 75.2900447,35.5263856 74.6717899,40.2526111 C74.0531089,44.9784025 74.0531089,51.9101131 74.0531089,51.9101131 L65.263749,52 C65.446115,47.591201 65.3736799,43.1359387 65,38.7080334" id="Fill-86" fill="#00975D"></path>
                <path d="M10.3047022,35.04255 C13.622186,37.075097 17.0880722,38.5997313 20.8486061,39.4964168 C21.8856973,39.7441027 22.9387503,39.9653628 24,40.1709466 C23.3636816,44.391908 22.9068265,48.6415348 22.6755949,52.8772768 L10.9065085,53 C10.9065085,53 9.44491743,44.9159451 10.2335209,35 C10.2563852,35.0138847 10.2814065,35.0286653 10.3047022,35.04255" id="Fill-87" fill="#00975D"></path>
                <path d="M63.5481777,18.2672527 C62.8661373,18.5265934 62.1832174,18.7674725 61.499418,19 C60.0566233,14.7995604 58.2369694,10.7454945 56,6.90857143 C58.502134,6.33450549 60.9611733,5.47340659 62.7957785,4 C67.2310199,6.4421978 70.5378825,9.82901099 73,13.4575824 C70.3804547,15.7472527 66.7983135,17.0325275 63.5481777,18.2672527" id="Fill-88" fill="#00975D"></path>
                <path d="M11,32.5865427 C11.5716761,28.1097831 12.6639238,23.4037185 14.595929,19 C17.1983543,20.5294378 20.0454742,21.6803896 21.3780858,22.1460823 C23.5236033,22.8959717 25.7431789,23.4293935 28,23.8030102 C27.9662191,23.9340416 27.9302728,24.0628597 27.8969251,24.1938911 C26.7566046,28.7060646 25.7501083,33.3293493 24.9480294,38 C23.9943699,37.8109783 23.0463404,37.6069057 22.1113036,37.3740593 C18.5569511,36.4900398 14.4707666,34.8463922 11,32.5865427" id="Fill-89" fill="#00975D"></path>
                <path d="M33.7323225,7.33608572 C33.8211109,7.35420176 33.9112115,7.36613184 34,7.38336417 C31.9473684,11.732098 30.2826943,16.2619922 28.9241872,21 C27.9225835,20.8281185 26.9262283,20.6359117 25.9425572,20.3937754 C23.3121446,19.7464583 20.7525878,18.816796 18.3758565,17.4996272 C17.7280945,17.1403993 16.8778248,16.6715915 16,16.1201569 C18.3631725,11.7908647 21.6850853,7.89724117 26.3051465,5 C28.6307042,6.3299826 31.7964718,6.9423932 33.7323225,7.33608572" id="Fill-90" fill="#00975D"></path>
                <path d="M27.3692294,41.2226521 C33.2594578,42.1071238 39.3635736,42.4583111 45.1696497,42.4695838 C51.1146648,42.4808565 56.9365195,41.4888607 62.6496773,40 C63.0130228,44.1717583 63.087971,48.3946772 62.9012579,52.6327708 L26,53 C26.3852601,49.0536953 26.8182943,45.129936 27.3692294,41.2226521" id="Fill-91" fill="#00975D"></path>
                <path d="M56.0739738,69 L57.9260262,69 C62.3667118,69 66,65.4153853 66,61.0341896 L66,47.9658104 C66,43.5846147 62.3667118,40 57.9260262,40 L56.0739738,40 C51.6332882,40 48,43.5846147 48,47.9658104 L48,61.0341896 C48,65.4153853 51.6332882,69 56.0739738,69" id="Fill-92" fill="#B4CD3A"></path>
                <path d="M28.0737715,69 L29.9262285,69 C34.3668028,69 38,65.4153853 38,61.0341896 L38,47.9658104 C38,43.5846147 34.3668028,40 29.9262285,40 L28.0737715,40 C23.6331972,40 20,43.5846147 20,47.9658104 L20,61.0341896 C20,65.4153853 23.6331972,69 28.0737715,69" id="Fill-93" fill="#B4CD3A"></path>
            </g>
            <g id="Group-5" transform="translate(55.777988, 31.782636) scale(-1, 1) rotate(13.000000) translate(-55.777988, -31.782636) translate(22.777988, 6.782636)">
                <path d="M36.6886947,34.6120365 C35.624487,34.8799709 34.5741754,35.2967066 33.4826387,35.4291789 C32.6662444,35.5283031 32.1875246,35.7444905 31.5842034,36.3357861 C30.2277149,37.6655686 29.4509243,39.4744133 29.8726702,41.3713428 C30.1234943,42.4989671 30.7434909,43.5083783 31.3973012,44.4635127 C32.1639013,45.5828575 32.9995185,46.6700042 34.0306073,47.5556826 C35.8824908,49.1464999 37.8742614,49.4466324 40.2493321,49.2665529 C42.1056161,49.1255711 46.3839858,47.050632 44.4345981,44.6521017 C45.0538998,45.4138173 46.4249792,45.092756 47.2330359,44.905087 C48.7352015,44.5566573 49.822801,43.4552514 50.0863632,41.9651682 C50.5294163,39.4610741 48.9996902,37.4664002 46.8664111,36.3447556 C45.9117508,35.8426948 44.8901578,35.4816158 43.9294758,34.9922043 C43.3187434,34.6808025 42.7003681,34.3710105 42.0361357,34.1989805 C40.2982,33.7486668 38.3865634,34.1847214 36.6886947,34.6120365" id="Fill-71" fill="#CB5358"></path>
                <path d="M48.3771476,40.8474256 C48.5823974,41.3802039 48.4181,42.0535674 47.8825491,42.3476575 C47.443529,42.5889735 46.8762886,42.5307248 46.3894906,42.3805045 C45.4878052,42.1026189 44.726772,41.5534171 43.9857274,41.0147263 C43.6603016,40.778009 43.300505,40.4657435 43.3699779,40.0947914 C43.4023986,39.9217972 43.5264748,39.7746426 43.6610329,39.6476342 C43.8679891,39.4523041 44.1134601,39.2845654 44.3954958,39.1921559 C45.1816368,38.9346354 46.112574,39.3487266 46.8226604,39.5429618 C47.5010574,39.7284379 48.1355768,40.2204859 48.3771476,40.8474256" id="Fill-72" fill="#C7313F"></path>
                <path d="M40.7251115,45.0985024 C40.9303595,45.6314915 40.7663073,46.3046256 40.2307612,46.5989302 C39.7915013,46.8400235 39.224266,46.7817757 38.7374724,46.6317767 C37.835795,46.3536764 37.0747686,45.804702 36.3339745,45.2660195 C36.0083079,45.0293058 35.6485145,44.7168262 35.7179868,44.3458798 C35.7504072,44.1731072 35.8744823,44.025736 36.0090391,43.8987295 C36.2162372,43.7036214 36.4614623,43.5356663 36.7434954,43.4432582 C37.5296294,43.1857417 38.4605582,43.5998264 39.170882,43.7942777 C39.8490292,43.9797509 40.4837866,44.4715724 40.7251115,45.0985024" id="Fill-73" fill="#C7313F"></path>
                <path d="M22.1057516,10.5978542 C23.8984202,5.81651834 28.5784337,2.53859341 33.5101705,0.836296639 C34.9545547,0.337697654 36.4679789,-0.0552288026 37.9994342,0.00637505169 C39.5308895,0.068209632 41.0948482,0.636026431 42.0725596,1.78411924 C43.1511027,3.0505745 43.3560876,4.95706382 42.5703122,6.41317589 C43.9136275,5.89404229 45.5459144,6.6293662 46.2593282,7.85221424 C46.972742,9.07483156 46.8754691,10.6320016 46.2908826,11.9178379 C45.4605041,13.7440345 43.7447048,15.0891674 41.8507299,15.8600231 C39.9569923,16.6311096 37.8846047,16.8839853 35.8352305,17.0044243 L22.1057516,10.5978542" id="Fill-74" fill="#CB5358"></path>
                <path d="M29.1682702,9.16702984 C28.6967389,9.37403393 27.6556262,9.51537543 27.3073259,8.98228426 C27.1528972,8.74589895 27.207716,8.43539282 27.2683288,8.15960996 C27.3808634,7.64632887 28.1940098,7.05180423 28.5712795,6.67919688 C29.07334,6.18327741 29.60281,5.71540366 30.1565696,5.27802407 C31.2643117,4.40326487 32.4687667,3.65070485 33.7429709,3.04260253 C34.2612988,2.79508797 34.807259,2.56760606 35.3817428,2.55135735 C36.4010171,2.52264388 36.9365038,3.39050295 36.2541649,4.18646704 C35.3819657,5.20412583 34.2483741,5.99563823 33.1553395,6.75732423 C31.8791297,7.64655145 30.592892,8.54156589 29.1682702,9.16702984" id="Fill-75" fill="#C7313F"></path>
                <path d="M32.5693625,13.4181112 C32.0978349,13.6251145 31.0565076,13.7664555 30.70821,13.2335889 C30.5537825,12.9969819 30.6086009,12.6864769 30.6692131,12.410695 C30.7819697,11.8974159 31.5951098,11.3028934 31.9721536,10.9302875 C32.4742102,10.4343698 33.003676,9.96649782 33.5576541,9.52911984 C34.6651646,8.65436389 35.8696102,7.90180668 37.1438044,7.29370661 C37.662351,7.04641555 38.2080841,6.8187119 38.7825634,6.80246326 C39.8018296,6.77374989 40.3373121,7.64182832 39.6552015,8.43756687 C38.7830091,9.45522189 37.6492035,10.2467313 36.5561776,11.0084145 C35.2802006,11.8976384 33.9937503,12.7926496 32.5693625,13.4181112" id="Fill-76" fill="#C7313F"></path>
                <path d="M35.9701838,16.8190208 C35.4986521,17.0260249 34.4573159,17.1673664 34.1090153,16.6342752 C33.9545864,16.3978899 34.0096282,16.0873838 34.0700181,15.8116009 C34.1827757,15.2983198 34.9959227,14.7037952 35.3729698,14.3311878 C35.8750307,13.8352683 36.4047239,13.3673946 36.9584839,12.930015 C38.0660039,12.0552558 39.2706827,11.3026958 40.544665,10.6945935 C41.0632161,10.4470789 41.6089539,10.219597 42.1834381,10.2033483 C43.2027131,10.1746348 43.7382002,11.0424939 43.0560837,11.838458 C42.1838838,12.8561168 41.0500685,13.6476292 39.957256,14.4093152 C38.6810453,15.2985424 37.3945838,16.1935568 35.9701838,16.8190208" id="Fill-77" fill="#C7313F"></path>
                <path d="M52.5613067,17.3604669 C54.5536025,15.6602316 56.9697371,14.5626634 59.5000797,14.4610749 C60.6287782,14.4157719 61.793931,14.5738748 62.8460293,15.1332982 C63.8981276,15.6927216 64.8281733,16.6893876 65.232862,17.9464315 C65.7766769,19.6354555 65.3050784,21.4942513 64.5178505,22.9572179 C62.9002493,25.9643762 59.9144588,27.8618397 56.7893115,27.8691614 C58.3462324,28.1812488 59.9442221,28.5102675 61.3313307,29.4499616 C64.236368,31.4174389 65.2360922,35.5397831 63.2064191,38.5560935 C61.0992231,41.6879494 56.2046586,41.1756594 53.328231,39.3278461 C50.7547431,37.6747442 47.9295361,34.2360634 47.6937368,30.8104244 C47.4256363,26.9155104 47.7354978,23.2356712 49.9176789,20.2472748 C50.7016767,19.1732734 51.5832705,18.1951404 52.5613067,17.3604669" id="Fill-78" fill="#CB5358"></path>
                <path d="M49.3128305,23.3891507 C49.5372437,22.2728869 50.180512,21.9443328 51.1096223,21.1883561 C52.3756,20.1582245 53.8365151,19.3286361 55.3207137,18.5590596 C56.146039,18.1312053 58.2365991,17.2152689 58.6353908,18.5577644 C58.8588132,19.3094237 57.7751402,20.1301614 57.1769527,20.547654 C55.4462959,21.7556624 53.5417561,22.7741371 51.5220372,23.5719925 C51.1797204,23.7071272 50.8131293,23.8390237 50.4400981,23.7988719 C49.8458738,23.7351903 49.3083719,23.0590854 49.5719212,22.5533021 C49.5922323,22.5144455 49.6167543,22.4749412 49.6449917,22.4350053 L49.3128305,23.3891507" id="Fill-79" fill="#C7313F"></path>
                <path d="M49.3128305,26.4133725 C49.8757702,25.3614312 50.5783036,25.2008517 51.6823189,24.6891025 C53.1866149,23.9914663 54.8084002,23.5437698 56.4325882,23.1619176 C57.3359827,22.9493793 59.5702022,22.5782772 59.5144608,24.016102 C59.4832264,24.8212391 58.2151104,25.3576239 57.5262721,25.6183136 C55.5335184,26.3723878 53.4393731,26.8935433 51.3084674,27.165431 C50.9471096,27.2115668 50.5643682,27.2478484 50.2304006,27.1116805 C49.6982147,26.894887 49.4135013,26.0841509 49.819308,25.6489962 C49.8505424,25.6156261 49.8858613,25.5829279 49.9247841,25.5504536 L49.3128305,26.4133725" id="Fill-80" fill="#C7313F"></path>
                <path d="M48.4626093,28.3172029 C49.601905,27.8871725 50.2216202,28.2031814 51.3760878,28.5076099 C52.9493009,28.9224968 54.4335831,29.5950456 55.8739833,30.3177016 C56.6750616,30.719672 58.5489124,31.828264 57.5078841,32.8577982 C56.924815,33.434364 55.6345002,33.0462009 54.9550308,32.8128131 C52.9892147,32.1375919 51.1120961,31.2269787 49.3820286,30.1090333 C49.0888601,29.919517 48.7868219,29.7095126 48.6397708,29.4019662 C48.4058896,28.9122527 48.7644141,28.1357038 49.3605545,28.0651084 C49.4065371,28.059541 49.4548539,28.0570913 49.5055048,28.057314 L48.4626093,28.3172029" id="Fill-81" fill="#C7313F"></path>
                <path d="M48.5230079,31.5532478 C49.7270249,31.3182965 50.2741567,31.7707332 51.3488049,32.3136095 C52.8134276,33.0533951 54.1400413,34.0479904 55.4136465,35.0870876 C56.122139,35.6651348 57.7460207,37.1947108 56.5207536,38.0814008 C55.8346788,38.577861 54.6428048,37.9208587 54.0207138,37.5440274 C52.2214603,36.4539682 50.5555455,35.1327859 49.0748101,33.6209149 C48.8237786,33.3646697 48.5680768,33.0852164 48.484244,32.7323109 C48.3506719,32.1705333 48.8553035,31.4199811 49.4552103,31.4596979 C49.5012133,31.462569 49.549318,31.4695075 49.5990572,31.4793171 L48.5230079,31.5532478" id="Fill-82" fill="#C7313F"></path>
                <path d="M42.4917778,42.2027046 C36.684799,45.470434 29.5874828,46.2368286 22.8079156,45.7996711 C22.0098589,45.7490193 21.2111115,45.673726 20.4153574,45.573563 C16.6767406,45.1076572 12.9968383,44.0989551 9.68004489,42.4347448 C5.71301721,40.4442636 2.77383859,37.1582812 1.24334738,33.2920841 C0.861818276,32.3281016 0.568015541,31.3289823 0.367234988,30.3038525 C0.0294539434,28.5794076 -0.0783044266,26.9254647 0.056393536,25.3500093 C0.15816533,24.171555 0.396246857,23.0366795 0.776164187,21.9460674 C0.96359007,21.4064654 1.1860144,20.8789559 1.44412793,20.36217 C2.4049734,18.4380838 3.85740886,16.6700601 5.84011682,15.0708759 C9.48571142,12.1305583 14.0313647,10.2313417 18.75178,9.25640744 C19.4024748,9.12224846 20.0584653,9.00497343 20.7174492,8.90617949 C25.8831737,8.12883315 31.2586585,8.446434 36.173177,10.0935321 C41.715365,11.9505388 46.6259691,15.5491025 49.5131106,20.3046733 C50.6800324,22.2273906 51.5195346,24.3403945 51.7792599,26.5334832 C51.7822532,26.5592654 51.7852465,26.5850477 51.7880095,26.6108299 C52.4849851,32.8366737 48.2748104,38.947524 42.4917778,42.2027046" id="Fill-83" fill="#3BACA2"></path>
                <path d="M42.4917778,42.9278059 C36.684799,46.3057622 29.5874828,47.0980088 22.8079156,46.6461051 C18.259269,46.3437353 13.7025635,45.2543079 9.68004489,43.1676733 C5.71301721,41.1100493 2.77383859,37.7132244 1.24334738,33.7166128 C0.861818276,32.7201134 0.568015541,31.6872918 0.367234988,30.6275824 C0.0294539434,28.8449687 -0.0783044266,27.135235 0.056393536,25.5066365 C0.437001625,29.1129032 1.83532765,32.5076054 4.01213883,35.4551212 C5.31514015,37.2179228 7.28357242,38.3507482 9.05444769,39.5406511 C11.2238908,40.9989603 13.7085501,41.9329574 16.2305104,42.5134036 C21.8284196,43.8016593 27.8018713,43.4823077 33.3834325,42.2612716 C37.6375856,41.3303406 41.8454579,39.801274 45.3059291,37.1021166 C48.5529559,34.5706542 51.0912642,30.9094325 51.7880095,26.809987 C52.4849851,33.2458406 48.2748104,39.5628217 42.4917778,42.9278059" id="Fill-84" fill="#27968B"></path>
                <path d="M20.4798138,45.9119456 C16.7293933,45.4366073 13.0378726,44.4074834 9.71060723,42.7095804 C5.73105464,40.6788009 2.78259629,37.3262921 1.24727294,33.3818218 C0.864539254,32.398323 0.569808909,31.378976 0.368394441,30.333092 C0.0295469369,28.5737348 -0.0785516534,26.886307 0.0565715845,25.2789557 C0.158664698,24.076643 0.397497908,22.9187914 0.778614733,21.8060992 C0.966632367,21.2555727 1.18975894,20.7173835 1.44868741,20.1901351 C2.4125665,18.2270948 3.86958767,16.4232765 5.85855554,14.791716 C9.5156602,11.7918701 14.0756653,9.85420292 18.8109841,8.85953065 C19.4637333,8.72265555 20.121795,8.60300623 20.7828594,8.50221215 C22.5092032,10.596308 26.9116799,16.3692714 27.806958,21.7811917 C27.806958,21.7811917 30.1532518,32.0975703 20.4798138,45.9119456" id="Fill-85" fill="#7BC2C3"></path>
                <path d="M21.1714721,15.1129814 C20.5322066,13.9035577 19.631616,12.9028114 18.3307877,12.3668249 C16.2056257,11.4913804 13.4030698,11.8398907 11.7149363,13.5450423 C9.42878736,15.854072 9.85533597,19.8086993 12.1834039,21.8854682 C14.5991005,24.0401338 18.8884448,24.8162422 21.0842894,21.902858 C22.5782129,19.9206609 22.280989,17.2111898 21.1714721,15.1129814" id="Fill-86" fill="#FFFFFE"></path>
                <path d="M12.7657878,18.7136172 C12.5304374,21.6809204 15.6733942,23.8391948 18.2330018,22.5987937 C19.8690302,21.8060207 20.6111838,20.2485104 20.3561828,18.3795452 C20.2049187,17.2713123 19.4492838,16.300666 18.4845754,15.7875428 C16.5252257,14.7455117 13.8330907,15.3981064 13.0034232,17.6435504 C12.8708958,18.0023597 12.7936643,18.3609333 12.7657878,18.7136172" id="Fill-87" fill="#181916"></path>
                <path d="M17.127316,16.2656538 C16.5988382,16.4970535 16.1475284,17.0663144 16.1542778,17.7677723 C16.1565276,17.9960926 16.2883659,18.2081357 16.4595756,18.3636486 C16.8820879,18.7474818 17.5698515,18.8165498 18.0634575,18.5246606 C18.5568385,18.2327714 18.8133156,17.6047807 18.6612292,17.0608154 C18.4133013,16.1730499 17.721488,16.005659 17.127316,16.2656538" id="Fill-88" fill="#FFFFFE"></path>
                <path d="M34.9956901,12.82269 C31.9465503,13.3280512 30.0468307,15.025098 29.7843458,18.0669352 C29.2392401,24.3824541 37.2130284,25.589335 40.6766306,21.1720864 C43.6133454,17.4268877 39.463447,12.0824912 34.9956901,12.82269" id="Fill-89" fill="#F0D754"></path>
                <path d="M41.456894,28.0786126 C40.5857819,28.2341489 40.0430652,28.7564342 39.9680034,29.6922059 C39.8122008,31.6355157 42.0904749,32.0068618 43.0801057,30.6476432 C43.919119,29.4952954 42.7334386,27.8510546 41.456894,28.0786126" id="Fill-90" fill="#F0D754"></path>
                <path d="M41.0828841,23.822202 C40.4294572,23.9387655 40.022447,24.3303741 39.9660985,25.0324451 C39.8492835,26.4899373 41.557946,26.7683448 42.3002303,25.7488624 C42.9293839,24.8847232 42.0401599,23.6513916 41.0828841,23.822202" id="Fill-91" fill="#7BC2C3"></path>
                <path d="M46.9326135,26.3781716 C45.8436207,26.5336833 45.1651834,27.0557872 45.0712156,27.9919103 C44.8766384,29.9349916 47.7244517,30.306469 48.9612839,28.947167 C50.0101805,27.7948746 48.5280974,26.1506036 46.9326135,26.3781716" id="Fill-92" fill="#7BC2C3"></path>
                <path d="M35.9815355,26.3675376 C35.3280337,26.4452704 34.9211134,26.7062784 34.8647519,27.1743506 C34.7481419,28.1460106 36.4567212,28.3316312 37.1988952,27.6519718 C37.8281033,27.0758443 36.9387092,26.2536189 35.9815355,26.3675376" id="Fill-93" fill="#7BC2C3"></path>
                <path d="M21.2058594,29.4380591 C20.7881714,29.7101084 20.2649622,29.8343639 19.7866458,29.9710676 C19.2916681,30.1120715 18.7902111,30.2306687 18.2834317,30.3264066 C17.2842201,30.5149399 16.2593225,30.6027562 15.241367,30.6077354 C9.42867701,30.6385164 3.92676541,27.5543099 0.850221215,22.8267171 C1.03858579,22.2914454 1.26212409,21.7681691 1.52153033,21.2555304 C2.0051691,22.1474991 2.57095703,22.9969177 3.21727429,23.7850007 C5.19880478,26.1997215 7.85141299,28.0440892 10.8636263,29.013463 C12.5019815,29.5405869 14.2285025,29.8219157 15.9522466,29.85496 C16.840846,29.8717085 17.7333794,29.8196524 18.6145738,29.7078451 C19.0734522,29.6494519 19.5295536,29.5711415 19.9817211,29.4747247 C20.3732603,29.3905297 20.7506836,29.2662742 21.151479,29.2400199 C21.2657936,29.2327773 21.2889342,29.3839661 21.2058594,29.4380591" id="Fill-94" fill="#1B887E"></path>
                <path d="M25.5066365,16.1542031 C25.5066365,16.1542031 32.3873427,25.8055631 26.5745762,34.0088486 C26.5745762,34.0088486 30.2951016,26.712665 25.5066365,16.1542031" id="Fill-95" fill="#1B887E"></path>
                <path d="M28.2894385,29.7577425 C28.100604,30.8554912 27.4643385,31.8629203 26.5697038,32.4807723 C26.1531772,32.7684745 25.6800683,32.9785913 25.3244414,33.3438787 C25.00949,33.6671899 24.8095208,34.0893102 24.6156871,34.5027051 C23.9787399,35.8593857 23.33543,37.2368185 23.0718343,38.7208427 C22.8082386,40.2048668 22.9679867,41.8346285 23.8255817,43.0531178 C25.1853719,44.9852026 27.8683671,45.3478959 30.128473,44.8753098 C31.570296,44.57393 33.0268895,43.952069 33.9278869,42.7456067 C35.1086138,41.1646599 35.074301,38.8840311 34.3396416,37.0349554 C33.4227375,34.7274429 31.5896112,32.9965138 29.9000992,31.2955339 C29.484027,30.8764793 28.4871353,30.3230064 28.2901202,29.7593933 C28.289893,29.7589216 28.2896658,29.7582142 28.2894385,29.7577425" id="Fill-96" fill="#CB5358"></path>
                <path d="M42.820851,23.2857098 C43.3146891,24.337519 44.6962225,24.9778949 45.7707755,24.4901475 C48.1149899,23.4255403 48.4270664,19.8539395 45.5018945,19.5726196 C43.196265,19.3510239 41.8724876,21.2659897 42.820851,23.2857098" id="Fill-97" fill="#F0D754"></path>
            </g>
            <g id="Group" transform="translate(46.625575, 58.305866) rotate(8.000000) translate(-46.625575, -58.305866) translate(3.125575, 32.805866)">
                <path d="M73.1799639,13.7111401 C76.4181226,14.8248248 81.1457839,12.5941598 81.9484045,9.14992586 C82.4490988,6.98897708 79.1530709,6.07176536 78.6523766,8.23423522 C78.5492185,8.6743346 78.428448,8.87841294 78.0862649,9.23231774 C77.7415659,9.58951821 77.2937086,9.84505978 76.7728859,10.0998408 C75.8595591,10.5495737 74.8003013,10.6345007 74.0882586,10.3896067 C71.9949035,9.67013549 71.1042212,12.9980068 73.1799639,13.7111401" id="Fill-59" fill="#575754"></path>
                <path d="M4.20289118,12.7629539 C6.04331339,17.0519248 10.1149943,19.4552135 14.3414473,18.9281122 C15.2395656,18.8160727 16,18.1744904 16,17.0850212 C16,16.1653747 15.2420068,15.1298907 14.3414473,15.2419302 C11.1608052,15.6385448 8.45937104,14.1473067 7.0669094,10.9025008 C6.6777818,9.99587586 5.52797564,9.76609987 4.79781211,10.2413862 C3.96975638,10.7801526 3.81376357,11.8560576 4.20289118,12.7629539" id="Fill-60" fill="#575754"></path>
                <g id="Group-64" transform="translate(11.000000, 4.000000)">
                    <path d="M63.1984416,23.3340612 C63.0602597,26.3626837 62.472987,36.1708163 61.9942857,39.114551 C61.9523377,39.3816837 61.9079221,39.6488163 61.861039,39.9176276 C61.2490909,43.4610918 56.732026,44.1485867 53.6508182,44.7773316 C46.6753506,46.1995612 39.5138312,46.1849337 32.4243636,46.4666939 C25.5076234,46.7419796 19.0133247,47.1803265 12.1298961,45.9242755 C9.42103896,45.4290969 5.24498701,45.3166327 3.17793506,43.2980306 C1.53505195,41.690199 1.69272727,39.2171837 1.43635065,37.1254439 C0.975168831,33.3735969 0.806883117,22.6662296 0.553961039,18.8899235 C0.372844156,16.1970153 -0.488818182,13.3036378 1.09361039,11.45625 C1.59649351,10.8665918 2.35254545,10.3826837 3.45725974,10.0469694 C7.8127013,8.72257653 12.5417273,8.68181122 17.0444805,8.20773469 C24.8463247,7.38667347 32.7942468,7.41281122 40.638039,7.41281122 C46.036013,7.41281122 51.5228182,7.1324898 56.9190649,7.41281122 C61.9597403,7.67826531 62.9763636,12.935551 63.191039,16.9039337 C63.3020779,18.9728929 63.2971429,21.1461633 63.1984416,23.3340612" id="Fill-61" fill="#D92E2E"></path>
                    <path d="M67.2772727,2.28165816 C68.3950649,-0.0796122449 71.1093506,-0.180566327 73.0636364,0.752479592 C82.8893506,5.44168878 63.3736364,10.5315969 67.2772727,2.28165816" id="Fill-63" fill="#222320"></path>
                </g>
                <path d="M0.950454461,13.0433202 C-0.942764191,11.0055038 0.208563865,6.48394128 2.50503374,5.27677815 C4.88100825,4.02828107 7.57523046,7.24994405 6.89222371,10.0164037 C6.18951264,12.8620868 3.19972561,15.4632107 0.950454461,13.0433202" id="Fill-65" fill="#222320"></path>
                <path d="M72,43.4122499 C71.9586198,43.6770061 71.9148055,43.9417623 71.868557,44.2081822 C71.2648927,47.7201234 66.8089744,48.4015023 63.7694763,49.0246538 C56.8884342,50.4342311 49.8238587,50.4197337 42.8303599,50.6989873 C36.0072501,50.971824 29.6008634,51.4062714 22.8106144,50.1613943 C20.1384264,49.6706209 16.0189049,49.5591571 13.9798342,47.5585128 C12.3591904,45.9649846 12.5147313,43.5139695 12.2618252,41.440838 C11.8068863,37.7223679 11.6408787,27.1102544 11.3913803,23.3675427 C11.2127152,20.698591 10.362717,17.8309532 11.9237246,16 C12.2496546,17.8568584 12.7423225,19.66357 13.403919,21.3348139 C15.7470125,27.2523767 20.8097595,37.5381794 26.5579575,40.0828336 C36.4057172,44.4422799 47.675739,46.6107141 58.5008019,45.6453283 C63.1475561,45.2320329 67.5260691,44.4843462 72,43.4122499" id="Fill-68" fill="#AD272B"></path>
                <path d="M58.4360996,10.5260867 C61.153045,10.4509995 63.8714523,10.3798399 66.5905906,10.3112217 C68.6911006,10.2580831 71.488207,9.74772095 73.5299972,10.1589679 C75.6107715,10.5778392 76.5000954,12.9348851 75.7204141,13.9992755 C74.5387098,15.6091457 70.5525895,15.2681341 68.0902587,15.4610506 C53.5784419,16.5984488 38.787889,16.9750402 24.1320747,16.9960646 C20.3991072,17.0013785 16.3827743,17.0766967 12.8807873,16.2354887 C10.7271616,15.7179644 9.29790841,13.5508314 10.3577876,12.357522 C11.7003012,10.8481532 16.8118426,11.3423427 19.1535664,11.4331405 C23.6752303,11.608498 28.0772617,11.5886288 32.6145192,11.399409 C41.1973476,11.0413007 49.8094141,10.7642865 58.4360996,10.5260867" id="Fill-69" fill="#CFD6D4"></path>
                <path d="M55.5597561,1.93485256 C59.0100855,1.36553136 55.431601,-1.05923725 53.4433487,0.53403756 C52.1815139,1.54543536 53.8419849,2.21820137 55.5597561,1.93485256" id="Fill-71" fill="#FFFFFE"></path>
            </g>
        </g>
        <path d="M190.520001,135.368 C190.616001,134.983998 190.807999,134.728001 191.096001,134.6 C191.224001,134.536 191.368,134.52 191.528001,134.552 L219.224001,134.552 C219.544002,134.552 219.736,134.679999 219.800001,134.936 C219.832001,135.064001 219.832001,135.191999 219.800001,135.32 L216.824001,146.84 C216.728,147.160002 216.536002,147.383999 216.248001,147.512 C216.12,147.576 215.976001,147.624 215.816001,147.656 C215.335998,147.688 214.760004,147.704 214.088001,147.704 C213.511998,147.704 212.784005,147.712 211.904001,147.728 C211.023996,147.744 209.976007,147.752 208.760001,147.752 L204.104001,166.232 C203.976,166.584002 203.784002,166.808 203.528001,166.904 C203.4,166.968 203.256001,167 203.096001,167 L191.288001,167 C190.967999,167 190.776001,166.872001 190.712001,166.616 C190.68,166.487999 190.68,166.360001 190.712001,166.232 L192.200001,160.28 C192.648003,158.519991 193.135998,156.560011 193.664001,154.4 C194.192003,152.239989 194.727998,150.072011 195.272001,147.896 L188.120001,148.04 C187.928,148.04 187.792001,147.992 187.712001,147.896 C187.632,147.8 187.584001,147.688001 187.568001,147.56 C187.552,147.431999 187.544001,147.328 187.544001,147.248 L187.544001,147.128 L190.520001,135.368 Z M235.256,134.504 C235.480002,134.504 235.64,134.552 235.736,134.648 C235.832001,134.744 235.896,134.84 235.928,134.936 C235.960001,135.064001 235.960001,135.191999 235.928,135.32 C235.639999,136.920008 235.320002,138.663991 234.968,140.552 C234.679999,142.184008 234.344002,144.079989 233.96,146.24 C233.575999,148.400011 233.176003,150.695988 232.76,153.128 C232.664,153.544002 232.68,153.927998 232.808,154.28 C232.904001,154.568001 233.079999,154.831999 233.336,155.072 C233.592002,155.312001 234.007998,155.432 234.584,155.432 C235.160003,155.432 235.615999,155.360001 235.952,155.216 C236.288002,155.071999 236.551999,154.888001 236.744,154.664 C236.936001,154.439999 237.072,154.192001 237.152,153.92 C237.232001,153.647999 237.288,153.400001 237.32,153.176 C237.512001,152.087995 237.743999,150.840007 238.016,149.432 C238.288002,148.023993 238.567999,146.544008 238.856,144.992 C239.144002,143.439992 239.439999,141.840008 239.744,140.192 C240.048002,138.543992 240.343999,136.936008 240.632,135.368 C240.664001,135.175999 240.736,135.024001 240.848,134.912 C240.960001,134.799999 241.08,134.72 241.208,134.672 C241.336001,134.624 241.448,134.592 241.544,134.576 L241.688,134.552 L253.112,134.552 C253.336002,134.552 253.496,134.6 253.592,134.696 C253.688001,134.792 253.752,134.888 253.784,134.984 C253.816001,135.112001 253.816001,135.239999 253.784,135.368 C253.175997,138.408015 252.648003,141.159988 252.2,143.624 C252.007999,144.680005 251.816001,145.727995 251.624,146.768 C251.431999,147.808005 251.256001,148.759996 251.096,149.624 C250.936,150.488004 250.808001,151.223997 250.712,151.832 C250.616,152.440003 250.552001,152.839999 250.52,153.032 C250.167999,155.11201 249.560005,157.023991 248.696,158.768 C247.831996,160.512009 246.680008,162.007994 245.24,163.256 C243.799993,164.504006 242.032011,165.455997 239.936,166.112 C237.83999,166.768003 235.400014,167.064 232.616,167 C229.863987,167.032 227.480011,166.584005 225.464,165.656 C224.599996,165.271998 223.776004,164.752003 222.992,164.096 C222.207997,163.439997 221.544003,162.624005 221,161.648 C220.455998,160.671995 220.080001,159.504007 219.872,158.144 C219.663999,156.783993 219.703999,155.192009 219.992,153.368 C220.152001,152.503996 220.335999,151.472006 220.544,150.272 C220.752001,149.071994 220.975999,147.816007 221.216,146.504 C221.456002,145.191993 221.687999,143.896006 221.912,142.616 C222.136002,141.335994 222.343999,140.168005 222.536,139.112 C222.728001,138.055995 222.88,137.184003 222.992,136.496 C223.104001,135.807997 223.176,135.416 223.208,135.32 C223.272001,134.935998 223.471999,134.704 223.808,134.624 C224.144002,134.544 224.296001,134.504 224.264,134.504 L235.256,134.504 Z M272.216,134.504 C272.440001,134.504 272.631999,134.552 272.792,134.648 C272.952001,134.744 273.096,134.84 273.224,134.936 C273.352001,135.064001 273.464,135.191999 273.56,135.32 L274.616,145.352 L276.056,135.416 C276.088,135.223999 276.16,135.072001 276.272,134.96 C276.384001,134.847999 276.512,134.768 276.656,134.72 C276.800001,134.672 276.92,134.64 277.016,134.624 L277.16,134.6 L288.92,134.504 C289.144001,134.504 289.304,134.552 289.4,134.648 C289.496001,134.744 289.56,134.84 289.592,134.936 C289.624,135.064001 289.608001,135.191999 289.544,135.32 C288.263994,140.952028 287.112005,146.007978 286.088,150.488 C285.639998,152.40801 285.208002,154.287991 284.792,156.128 C284.375998,157.968009 284.000002,159.615993 283.664,161.072 C283.327999,162.528007 283.048001,163.727995 282.824,164.672 C282.599999,165.616005 282.472,166.136 282.44,166.232 C282.312,166.584002 282.120002,166.808 281.864,166.904 C281.736,166.968 281.592001,167 281.432,167 L270.056,167.048 C269.863999,167.048 269.688001,167.008 269.528,166.928 C269.367999,166.848 269.208001,166.76 269.048,166.664 C268.887999,166.535999 268.728001,166.392001 268.568,166.232 L266.456,156.248 L264.872,166.232 C264.744,166.584002 264.552002,166.808 264.296,166.904 C264.168,166.968 264.024001,167 263.864,167 L252.056,167 C251.735999,167 251.544001,166.872001 251.48,166.616 C251.448,166.487999 251.448,166.360001 251.48,166.232 C252.728007,160.631972 253.879995,155.592022 254.936,151.112 C255.352002,149.19199 255.775998,147.312009 256.208,145.472 C256.640002,143.631991 257.023999,141.984007 257.36,140.528 C257.696002,139.071993 257.975999,137.872005 258.2,136.928 C258.424001,135.983995 258.552,135.464 258.584,135.368 C258.616,135.175999 258.696,135.024001 258.824,134.912 C258.952001,134.799999 259.08,134.72 259.208,134.672 C259.336001,134.624 259.448,134.592 259.544,134.576 L259.688,134.552 L272.216,134.504 Z M309.416,167 C308.967998,167.032 308.680001,166.952001 308.552,166.76 C308.456,166.664 308.424,166.568 308.456,166.472 C308.424,166.087998 308.392,165.720002 308.36,165.368 C308.328,165.047998 308.296,164.720002 308.264,164.384 C308.232,164.047998 308.2,163.752001 308.168,163.496 L302.36,163.496 C302.071999,164.040003 301.832001,164.647997 301.64,165.32 C301.512,165.672002 301.384001,166.039998 301.256,166.424 C301.192,166.552001 301.096001,166.664 300.968,166.76 C300.872,166.824 300.744001,166.896 300.584,166.976 C300.423999,167.056 300.264001,167.064 300.104,167 L288.536,166.952 L288.44,166.88 C288.376,166.832 288.304001,166.768 288.224,166.688 C288.144,166.608 288.088,166.504001 288.056,166.376 C288.024,166.247999 288.056,166.088001 288.152,165.896 C288.184,165.8 288.447998,165.288005 288.944,164.36 C289.440003,163.431995 290.071996,162.232007 290.84,160.76 C291.608004,159.287993 292.463995,157.632009 293.408,155.792 C294.352005,153.951991 295.319995,152.07201 296.312,150.152 C298.616012,145.671978 301.223986,140.616028 304.136,134.984 C304.168,134.92 304.248,134.84 304.376,134.744 C304.600001,134.583999 304.871999,134.504 305.192,134.504 L315.464,134.504 C315.752002,134.504 315.991999,134.599999 316.184,134.792 C316.280001,134.888 316.344,134.968 316.376,135.032 C317.336005,140.696028 318.215996,145.767978 319.016,150.248 C319.336002,152.16801 319.663998,154.047991 320,155.888 C320.336002,157.728009 320.631999,159.383993 320.888,160.856 C321.144001,162.328007 321.351999,163.527995 321.512,164.456 C321.672001,165.384005 321.768,165.896 321.8,165.992 C321.832,166.184001 321.808001,166.343999 321.728,166.472 C321.648,166.600001 321.552001,166.704 321.44,166.784 C321.328,166.864 321.232001,166.92 321.152,166.952 L321.032,167 L309.416,167 Z M307.592,149.672 L304.568,156.92 L308.408,156.92 L307.592,149.672 Z M192.872001,193.368 C192.968001,192.983998 193.159999,192.728001 193.448001,192.6 C193.576001,192.536 193.72,192.52 193.880001,192.552 L221.576001,192.552 C221.896002,192.552 222.088,192.679999 222.152001,192.936 C222.184001,193.064001 222.184001,193.191999 222.152001,193.32 L219.176001,204.84 C219.08,205.160002 218.888002,205.383999 218.600001,205.512 C218.472,205.576 218.328001,205.624 218.168001,205.656 C217.687998,205.688 217.112004,205.704 216.440001,205.704 C215.863998,205.704 215.136005,205.712 214.256001,205.728 C213.375996,205.744 212.328007,205.752 211.112001,205.752 L206.456001,224.232 C206.328,224.584002 206.136002,224.808 205.880001,224.904 C205.752,224.968 205.608001,225 205.448001,225 L193.640001,225 C193.319999,225 193.128001,224.872001 193.064001,224.616 C193.032,224.487999 193.032,224.360001 193.064001,224.232 L194.552001,218.28 C195.000003,216.519991 195.487998,214.560011 196.016001,212.4 C196.544003,210.239989 197.079998,208.072011 197.624001,205.896 L190.472001,206.04 C190.28,206.04 190.144001,205.992 190.064001,205.896 C189.984,205.8 189.936001,205.688001 189.920001,205.56 C189.904,205.431999 189.896001,205.328 189.896001,205.248 L189.896001,205.128 L192.872001,193.368 Z M226.328,223.272 C225.303995,222.439996 224.512003,221.352007 223.952,220.008 C223.391998,218.663993 223.032001,217.184008 222.872,215.568 C222.712,213.951992 222.727999,212.264009 222.92,210.504 C223.112001,208.743991 223.447998,207.008009 223.928,205.296 C224.408003,203.583991 225.023997,201.960008 225.776,200.424 C226.528004,198.887992 227.383996,197.560006 228.344,196.44 C229.144004,195.511995 230.135995,194.752003 231.32,194.16 C232.504006,193.567997 233.759994,193.104002 235.088,192.768 C236.416007,192.431998 237.767994,192.208001 239.144,192.096 C240.520007,191.983999 241.783995,191.944 242.936,191.976 C244.024006,192.008 245.231994,192.064 246.56,192.144 C247.888007,192.224 249.191994,192.407999 250.472,192.696 C251.752007,192.984001 252.911995,193.415997 253.952,193.992 C254.992006,194.568003 255.783998,195.383995 256.328,196.44 C256.968004,197.688006 257.376,199.143992 257.552,200.808 C257.728001,202.472008 257.704002,204.207991 257.48,206.016 C257.255999,207.824009 256.856003,209.639991 256.28,211.464 C255.703998,213.288009 255.016004,214.983992 254.216,216.552 C253.415996,218.120008 252.504006,219.495994 251.48,220.68 C250.455995,221.864006 249.384006,222.727997 248.264,223.272 C247.591997,223.592002 246.896004,223.887999 246.176,224.16 C245.455997,224.432001 244.640005,224.663999 243.728,224.856 C242.815996,225.048001 241.792006,225.199999 240.656,225.312 C239.519995,225.424001 238.200008,225.48 236.696,225.48 C233.847986,225.48 231.600009,225.272002 229.952,224.856 C228.303992,224.439998 227.096004,223.912003 226.328,223.272 Z M236.456,213.672 C236.712002,213.960001 237.063998,214.183999 237.512,214.344 C237.960003,214.504001 238.431998,214.568 238.928,214.536 C239.424003,214.504 239.919998,214.360001 240.416,214.104 C240.912003,213.847999 241.351999,213.432003 241.736,212.856 C242.056002,212.343997 242.367999,211.624005 242.672,210.696 C242.976002,209.767995 243.223999,208.800005 243.416,207.792 C243.608001,206.783995 243.728,205.840004 243.776,204.96 C243.824001,204.079996 243.752001,203.448002 243.56,203.064 C243.4,202.679998 243.096003,202.408001 242.648,202.248 C242.199998,202.087999 241.712003,202.032 241.184,202.08 C240.655998,202.128 240.128003,202.287999 239.6,202.56 C239.071998,202.832001 238.632002,203.223997 238.28,203.736 C237.959999,204.184002 237.632002,204.895995 237.296,205.872 C236.959999,206.848005 236.680002,207.863995 236.456,208.92 C236.231999,209.976005 236.104001,210.951996 236.072,211.848 C236.04,212.744004 236.167999,213.351998 236.456,213.672 Z M288.2,206.376 C287.367996,209.512016 286.320007,212.03999 285.056,213.96 C283.791994,215.88001 282.424008,217.343995 280.952,218.352 C279.479993,219.360005 277.968008,219.983999 276.416,220.224 C274.863993,220.464001 273.368007,220.488001 271.928,220.296 L271.16,224.184 C271.032,224.568002 270.840002,224.808 270.584,224.904 C270.456,224.968 270.312001,225 270.152,225 L258.344,225 C258.023999,225 257.832001,224.872001 257.768,224.616 C257.736,224.487999 257.736,224.360001 257.768,224.232 C258.952006,218.663972 260.039995,213.656022 261.032,209.208 C261.448002,207.319991 261.855998,205.464009 262.256,203.64 C262.656002,201.815991 263.015999,200.176007 263.336,198.72 C263.656002,197.263993 263.919999,196.072005 264.128,195.144 C264.336001,194.215995 264.456,193.704 264.488,193.608 C264.552001,193.223998 264.751999,192.984 265.088,192.888 C265.424002,192.792 265.576,192.744 265.544,192.744 L277.304,192.6 C278.296005,192.6 279.311995,192.648 280.352,192.744 C281.392005,192.84 282.391995,193.047998 283.352,193.368 C284.312005,193.688002 285.191996,194.159997 285.992,194.784 C286.792004,195.408003 287.431998,196.231995 287.912,197.256 C288.392003,198.280005 288.672,199.535993 288.752,201.024 C288.832001,202.512007 288.648003,204.29599 288.2,206.376 Z M273.56,209.976 C273.752001,209.944 274.047998,209.944 274.448,209.976 C274.848002,210.008 275.271998,209.936001 275.72,209.76 C276.168003,209.583999 276.615998,209.224003 277.064,208.68 C277.512003,208.135997 277.863999,207.256006 278.12,206.04 C278.344001,205.047995 278.344001,204.320002 278.12,203.856 C277.895999,203.391998 277.592002,203.072001 277.208,202.896 C276.823998,202.719999 276.424002,202.656 276.008,202.704 C275.591998,202.752 275.304001,202.792 275.144,202.824 L273.56,209.976 Z M291.368,225 L291.248,224.976 C291.168,224.96 291.080001,224.928 290.984,224.88 C290.888,224.832 290.800001,224.752001 290.72,224.64 C290.64,224.527999 290.616,224.376001 290.648,224.184 C290.68,224.088 290.799999,223.568005 291.008,222.624 C291.216001,221.679995 291.495998,220.480007 291.848,219.024 C292.200002,217.567993 292.591998,215.920009 293.024,214.08 C293.456002,212.239991 293.895998,210.36001 294.344,208.44 C295.400005,203.959978 296.599993,198.904028 297.944,193.272 C297.976,193.143999 298.04,193.016001 298.136,192.888 C298.2,192.792 298.296,192.696 298.424,192.6 C298.552001,192.504 298.711999,192.456 298.904,192.456 L310.952,192.552 C312.392007,192.584 313.815993,192.6 315.224,192.6 L322.712,192.6 C322.840001,192.632 322.968,192.696 323.096,192.792 C323.320001,192.952001 323.4,193.207998 323.336,193.56 L321.704,200.856 C321.672,200.984001 321.608001,201.111999 321.512,201.24 C321.319999,201.496001 321.048002,201.624 320.696,201.624 L309.512,201.528 L307.976,207.624 C310.472013,207.656 312.359994,207.688 313.64,207.72 C314.920007,207.752 315.671999,207.768 315.896,207.768 C316.248002,207.8 316.456,207.943999 316.52,208.2 C316.552,208.328001 316.552,208.455999 316.52,208.584 L315.416,213.336 C315.32,213.656002 315.128002,213.879999 314.84,214.008 C314.712,214.072 314.568001,214.104 314.408,214.104 L312.248,214.104 C311.543997,214.104 310.712005,214.096 309.752,214.08 C308.791995,214.064 307.704006,214.056 306.488,214.056 L304.136,224.184 C304.136,224.344001 304.088001,224.487999 303.992,224.616 C303.799999,224.872001 303.512002,225 303.128,225 L291.368,225 Z M137.624001,251.368 C137.720001,250.983998 137.911999,250.728001 138.200001,250.6 C138.328001,250.536 138.472,250.52 138.632001,250.552 L166.328001,250.552 C166.648002,250.552 166.840001,250.679999 166.904001,250.936 C166.936001,251.064001 166.936001,251.191999 166.904001,251.32 L163.928001,262.84 C163.832,263.160002 163.640002,263.383999 163.352001,263.512 C163.224,263.576 163.080002,263.624 162.920001,263.656 C162.439998,263.688 161.864004,263.704 161.192001,263.704 C160.615998,263.704 159.888005,263.712 159.008001,263.728 C158.127996,263.744 157.080007,263.752 155.864001,263.752 L151.208001,282.232 C151.08,282.584002 150.888002,282.808 150.632001,282.904 C150.504,282.968 150.360002,283 150.200001,283 L138.392001,283 C138.071999,283 137.880001,282.872001 137.816001,282.616 C137.784001,282.487999 137.784001,282.360001 137.816001,282.232 L139.304001,276.28 C139.752003,274.519991 140.239998,272.560011 140.768001,270.4 C141.296003,268.239989 141.831998,266.072011 142.376001,263.896 L135.224001,264.04 C135.032,264.04 134.896001,263.992 134.816001,263.896 C134.736,263.8 134.688001,263.688001 134.672001,263.56 C134.656001,263.431999 134.648001,263.328 134.648001,263.248 L134.648001,263.128 L137.624001,251.368 Z M182.360001,250.504 C182.584002,250.504 182.744,250.552 182.840001,250.648 C182.936001,250.744 183.000001,250.84 183.032001,250.936 C183.064001,251.064001 183.064001,251.191999 183.032001,251.32 C182.743999,252.920008 182.424002,254.663991 182.072001,256.552 C181.783999,258.184008 181.448003,260.079989 181.064001,262.24 C180.679999,264.400011 180.280003,266.695988 179.864001,269.128 C179.768,269.544002 179.784,269.927998 179.912001,270.28 C180.008001,270.568001 180.183999,270.831999 180.440001,271.072 C180.696002,271.312001 181.111998,271.432 181.688001,271.432 C182.264004,271.432 182.719999,271.360001 183.056001,271.216 C183.392002,271.071999 183.656,270.888001 183.848001,270.664 C184.040002,270.439999 184.176,270.192001 184.256001,269.92 C184.336001,269.647999 184.392001,269.400001 184.424001,269.176 C184.616002,268.087995 184.847999,266.840007 185.120001,265.432 C185.392002,264.023993 185.671999,262.544008 185.960001,260.992 C186.248002,259.439992 186.543999,257.840008 186.848001,256.192 C187.152002,254.543992 187.447999,252.936008 187.736001,251.368 C187.768001,251.175999 187.84,251.024001 187.952001,250.912 C188.064001,250.799999 188.184,250.72 188.312001,250.672 C188.440001,250.624 188.552,250.592 188.648001,250.576 L188.792001,250.552 L200.216001,250.552 C200.440002,250.552 200.6,250.6 200.696001,250.696 C200.792001,250.792 200.856001,250.888 200.888001,250.984 C200.920001,251.112001 200.920001,251.239999 200.888001,251.368 C200.279998,254.408015 199.752003,257.159988 199.304001,259.624 C199.112,260.680005 198.920002,261.727995 198.728001,262.768 C198.536,263.808005 198.360002,264.759996 198.200001,265.624 C198.04,266.488004 197.912001,267.223997 197.816001,267.832 C197.72,268.440003 197.656001,268.839999 197.624001,269.032 C197.271999,271.11201 196.664005,273.023991 195.800001,274.768 C194.935996,276.512009 193.784008,278.007994 192.344001,279.256 C190.903994,280.504006 189.136011,281.455997 187.040001,282.112 C184.94399,282.768003 182.504015,283.064 179.720001,283 C176.967987,283.032 174.584011,282.584005 172.568001,281.656 C171.703996,281.271998 170.880005,280.752003 170.096001,280.096 C169.311997,279.439997 168.648003,278.624005 168.104001,277.648 C167.559998,276.671995 167.184002,275.504007 166.976001,274.144 C166.768,272.783993 166.807999,271.192009 167.096001,269.368 C167.256002,268.503996 167.44,267.472006 167.648001,266.272 C167.856002,265.071994 168.08,263.816007 168.320001,262.504 C168.560002,261.191993 168.792,259.896006 169.016001,258.616 C169.240002,257.335994 169.448,256.168005 169.640001,255.112 C169.832002,254.055995 169.984,253.184003 170.096001,252.496 C170.208001,251.807997 170.280001,251.416 170.312001,251.32 C170.376001,250.935998 170.575999,250.704 170.912001,250.624 C171.248002,250.544 171.400001,250.504 171.368001,250.504 L182.360001,250.504 Z M212.936001,282.232 C212.872,282.424001 212.784001,282.568 212.672001,282.664 C212.56,282.76 212.456001,282.84 212.360001,282.904 C212.232,282.968 212.104001,283 211.976001,283 L200.024001,283 C199.703999,283 199.512001,282.840002 199.448001,282.52 C199.416,282.391999 199.400001,282.232001 199.400001,282.04 C200.520006,276.471972 201.511996,271.464022 202.376001,267.016 C202.760002,265.127991 203.127999,263.264009 203.480001,261.424 C203.832002,259.583991 204.151999,257.936007 204.440001,256.48 C204.728002,255.023993 204.96,253.832005 205.136001,252.904 C205.312001,251.975995 205.416,251.464 205.448001,251.368 C205.480001,251.175999 205.56,251.032 205.688001,250.936 C205.816001,250.84 205.944,250.768 206.072001,250.72 C206.200001,250.672 206.312,250.64 206.408001,250.624 L206.552001,250.6 L218.312001,250.552 C219.304006,250.584 220.319995,250.592 221.360001,250.576 C222.400006,250.56 223.399996,250.607999 224.360001,250.72 C225.320005,250.832001 226.199997,251.039998 227.000001,251.344 C227.800005,251.648002 228.463998,252.143997 228.992001,252.832 C229.520003,253.520003 229.872,254.423994 230.048001,255.544 C230.224001,256.664006 230.168002,258.087991 229.880001,259.816 C229.527999,261.76801 229.032004,263.279995 228.392001,264.352 C227.751997,265.424005 227.016005,266.239997 226.184001,266.8 C225.351996,267.360003 224.464005,267.759999 223.520001,268 C222.575996,268.240001 221.640005,268.503999 220.712001,268.792 C222.088007,268.76 223.247996,268.784 224.192001,268.864 C225.136005,268.944 225.903998,269.079999 226.496001,269.272 C227.088004,269.464001 227.527999,269.695999 227.816001,269.968 C228.104002,270.240001 228.28,270.567998 228.344001,270.952 C228.440001,271.528003 228.480001,271.983998 228.464001,272.32 C228.448,272.656002 228.376001,272.983998 228.248001,273.304 C228.12,273.624002 227.960002,274.015998 227.768001,274.48 C227.576,274.944002 227.352002,275.575996 227.096001,276.376 C226.968,276.760002 226.92,277.055999 226.952001,277.264 C226.984001,277.472001 227.056,277.624 227.168001,277.72 C227.280001,277.816 227.447999,277.864 227.672001,277.864 L228.392001,277.864 L227.528001,282.28 L226.856001,283.048 L221.456001,283.048 C220.639996,283.048 220.024003,283.032 219.608001,283 C218.679996,283 218.024002,282.824002 217.640001,282.472 C217.255999,282.119998 217.024001,281.728002 216.944001,281.296 C216.864,280.863998 216.864,280.440002 216.944001,280.024 C217.024001,279.607998 217.064001,279.320001 217.064001,279.16 C217.288002,278.007994 217.336001,277.176003 217.208001,276.664 C217.08,276.151997 216.856002,275.808001 216.536001,275.632 C216.215999,275.455999 215.856003,275.384 215.456001,275.416 C215.055999,275.448 214.680002,275.448 214.328001,275.416 L212.936001,282.232 Z M215.864001,264.328 C216.056002,264.296 216.359998,264.304 216.776001,264.352 C217.192003,264.4 217.623998,264.360001 218.072001,264.232 C218.520003,264.103999 218.951998,263.832002 219.368001,263.416 C219.784003,262.999998 220.088,262.312005 220.280001,261.352 C220.472002,260.455996 220.440002,259.784002 220.184001,259.336 C219.927999,258.887998 219.592003,258.576001 219.176001,258.4 C218.759998,258.223999 218.336003,258.144 217.904001,258.16 C217.471998,258.176 217.176001,258.2 217.016001,258.232 L215.864001,264.328 Z M233.768,251.368 C233.864001,250.983998 234.055999,250.728001 234.344,250.6 C234.472001,250.536 234.616,250.52 234.776,250.552 L262.472,250.552 C262.792002,250.552 262.984,250.679999 263.048,250.936 C263.080001,251.064001 263.080001,251.191999 263.048,251.32 L260.072,262.84 C259.976,263.160002 259.784002,263.383999 259.496,263.512 C259.368,263.576 259.224001,263.624 259.064,263.656 C258.583998,263.688 258.008004,263.704 257.336,263.704 C256.759998,263.704 256.032005,263.712 255.152,263.728 C254.271996,263.744 253.224007,263.752 252.008,263.752 L247.352,282.232 C247.224,282.584002 247.032002,282.808 246.776,282.904 C246.648,282.968 246.504001,283 246.344,283 L234.536,283 C234.215999,283 234.024001,282.872001 233.96,282.616 C233.928,282.487999 233.928,282.360001 233.96,282.232 L235.448,276.28 C235.896003,274.519991 236.383998,272.560011 236.912,270.4 C237.440003,268.239989 237.975998,266.072011 238.52,263.896 L231.368,264.04 C231.175999,264.04 231.040001,263.992 230.96,263.896 C230.88,263.8 230.832001,263.688001 230.816,263.56 C230.8,263.431999 230.792,263.328 230.792,263.248 L230.792,263.128 L233.768,251.368 Z M279.176,250.504 C279.400001,250.504 279.56,250.552 279.656,250.648 C279.752001,250.744 279.816,250.84 279.848,250.936 C279.88,251.064001 279.864001,251.191999 279.8,251.32 L276.728,272.392 L287.816,272.392 C288.168002,272.424 288.376,272.567999 288.44,272.824 C288.472,272.952001 288.488,273.079999 288.488,273.208 L286.616,282.184 C286.552,282.376001 286.472001,282.52 286.376,282.616 C286.28,282.712 286.184001,282.792 286.088,282.856 C285.96,282.92 285.832001,282.968 285.704,283 L273.704,283 L261.896,283.048 C261.575999,283.048 261.384001,282.920001 261.32,282.664 C261.288,282.535999 261.272,282.408001 261.272,282.28 C262.200005,276.647972 263.031997,271.592022 263.768,267.112 C264.088002,265.19199 264.391999,263.312009 264.68,261.472 C264.968002,259.631991 265.231999,257.984007 265.472,256.528 C265.712001,255.071993 265.911999,253.872005 266.072,252.928 C266.232001,251.983995 266.312,251.464 266.312,251.368 C266.408001,250.983998 266.615999,250.752 266.936,250.672 C267.256002,250.592 267.4,250.552 267.368,250.552 L279.176,250.504 Z M317.432,282.28 C317.368,282.536001 317.280001,282.712 317.168,282.808 C317.056,282.904 316.952001,282.984 316.856,283.048 C316.728,283.112 316.600001,283.128 316.472,283.096 C312.311979,283.064 308.536017,283.048 305.144,283.048 L296.888,283.048 C295.703994,283.048 294.688004,283.04 293.84,283.024 C292.991996,283.008 292.424002,283 292.136,283 L292.016,282.976 C291.936,282.96 291.840001,282.928 291.728,282.88 C291.616,282.832 291.520001,282.752001 291.44,282.64 C291.36,282.527999 291.352,282.376001 291.416,282.184 C291.416,282.088 291.511999,281.576005 291.704,280.648 C291.896001,279.719995 292.143999,278.520007 292.448,277.048 C292.752002,275.575993 293.087998,273.928009 293.456,272.104 C293.824002,270.279991 294.199998,268.40801 294.584,266.488 C295.480005,262.039978 296.503994,257.000028 297.656,251.368 C297.688,251.239999 297.752,251.112001 297.848,250.984 C297.912,250.888 298,250.792 298.112,250.696 C298.224001,250.6 298.375999,250.552 298.568,250.552 L310.616,250.552 C312.056007,250.584 313.479993,250.6 314.888,250.6 L318.68,250.6 C319.960007,250.6 321.191994,250.616 322.376,250.648 C322.504001,250.648 322.632,250.68 322.76,250.744 C322.984001,250.872001 323.08,251.095998 323.048,251.416 L321.512,258.808 C321.48,258.936001 321.416001,259.063999 321.32,259.192 C321.256,259.288 321.160001,259.384 321.032,259.48 C320.904,259.576 320.744001,259.624 320.552,259.624 L309.368,259.624 L308.552,263.704 L316.088,263.704 C316.248001,263.736 316.344,263.8 316.376,263.896 C316.408,263.96 316.424,264.024 316.424,264.088 L315.416,269.128 C315.384,269.224 315.344,269.288 315.296,269.32 C315.248,269.352 315.192,269.384 315.128,269.416 C315.064,269.448 315,269.464 314.936,269.464 C314.167996,269.496 313.368004,269.512 312.536,269.512 L307.4,269.512 L306.632,273.352 L318.392,273.352 C318.584001,273.352 318.728,273.4 318.824,273.496 C318.920001,273.592 318.984,273.703999 319.016,273.832 C319.048,273.960001 319.064,274.064 319.064,274.144 L319.064,274.264 L317.432,282.28 Z" id="TUNA-TOPF-TURTLE" fill="#4A90E2"></path>
        <path d="M154.292,78.71 L155.804,78.71 C156.462,78.71 157.12,78.878 157.624,79.354 C158.128,79.83 158.464,80.614 158.464,81.79 C158.464,82.966 158.128,83.736 157.624,84.212 C157.12,84.688 156.462,84.884 155.804,84.884 L155.804,89 L154.292,89 L154.292,78.71 Z M155.804,83.344 C156.266,83.344 156.56,83.26 156.728,83.022 C156.896,82.798 156.938,82.42 156.938,81.846 C156.938,81.272 156.896,80.866 156.728,80.614 C156.56,80.362 156.266,80.25 155.804,80.25 L155.804,83.344 Z M163.922,89 L163.138,84.66 L162.732,84.66 L162.732,89 L161.22,89 L161.22,78.71 L162.732,78.71 C164.538,78.71 165.308,79.732 165.308,81.678 C165.308,82.7 165.042,83.624 164.468,84.016 L165.434,89 L163.922,89 Z M162.732,83.26 C162.942,83.26 163.222,83.232 163.446,83.036 C163.67,82.84 163.852,82.462 163.852,81.734 C163.852,81.006 163.67,80.614 163.446,80.418 C163.222,80.222 162.942,80.208 162.732,80.208 L162.732,83.26 Z M168.274,78.71 L171.732,78.71 L171.732,80.264 L169.786,80.264 L169.786,82.966 L171.186,82.966 L171.186,84.618 L169.786,84.618 L169.786,87.446 L171.732,87.446 L171.732,89 L168.274,89 L168.274,78.71 Z M177.078,81.468 C177.078,81.132 177.064,80.754 176.966,80.46 C176.868,80.18 176.714,79.984 176.476,79.984 C176.084,79.998 175.958,80.404 175.958,81.006 C175.958,81.356 176.112,81.72 176.336,82.112 C176.56,82.504 176.854,82.91 177.148,83.344 C177.498,83.862 177.848,84.394 178.114,84.912 C178.38,85.43 178.562,85.962 178.562,86.522 C178.562,87.208 178.45,87.852 178.128,88.328 C177.806,88.804 177.288,89.112 176.462,89.112 C175.496,89.112 174.95,88.748 174.642,88.188 C174.334,87.628 174.264,86.886 174.264,86.116 L175.748,85.976 C175.748,86.41 175.762,86.844 175.874,87.166 C175.972,87.502 176.14,87.726 176.462,87.726 C176.91,87.726 177.078,87.25 177.078,86.592 C177.078,86.256 176.91,85.864 176.686,85.458 C176.56,85.262 176.434,85.052 176.294,84.842 C176,84.422 175.678,83.946 175.342,83.428 C175.006,82.91 174.754,82.378 174.6,81.832 C174.516,81.566 174.474,81.286 174.474,81.006 C174.474,80.446 174.6,79.844 174.922,79.382 C175.244,78.934 175.734,78.612 176.448,78.598 C177.358,78.584 177.89,78.962 178.184,79.508 C178.478,80.068 178.562,80.754 178.562,81.328 L177.078,81.468 Z M181.374,78.71 L184.832,78.71 L184.832,80.264 L182.886,80.264 L182.886,82.966 L184.286,82.966 L184.286,84.618 L182.886,84.618 L182.886,87.446 L184.832,87.446 L184.832,89 L181.374,89 L181.374,78.71 Z M189.268,83.638 L189.142,83.162 L189.058,83.162 L189.058,89 L187.672,89 L187.672,78.71 L189.016,78.71 L190.486,84.072 L190.612,84.548 L190.696,84.548 L190.696,78.71 L192.082,78.71 L192.082,89 L190.738,89 L189.268,83.638 Z M194.67,80.264 L194.67,78.71 L199.038,78.71 L199.038,80.264 L197.61,80.264 L197.61,89 L196.098,89 L196.098,80.264 L194.67,80.264 Z M201.626,78.71 L203.138,78.71 L203.138,89 L201.626,89 L201.626,78.71 Z M207.854,83.638 L207.728,83.162 L207.644,83.162 L207.644,89 L206.258,89 L206.258,78.71 L207.602,78.71 L209.072,84.072 L209.198,84.548 L209.282,84.548 L209.282,78.71 L210.668,78.71 L210.668,89 L209.324,89 L207.854,83.638 Z M216.21,82.406 L216.21,80.824 C216.21,80.544 216.154,80.348 216.014,80.18 C215.944,80.11 215.832,80.068 215.706,80.068 C215.44,80.068 215.314,80.264 215.258,80.446 C215.216,80.558 215.202,80.684 215.202,80.824 L215.202,87.012 C215.202,87.306 215.272,87.502 215.412,87.656 C215.482,87.726 215.58,87.768 215.706,87.768 C215.972,87.768 216.098,87.6 216.154,87.39 C216.196,87.292 216.21,87.166 216.21,87.012 L216.21,85.15 L215.608,85.15 L215.608,83.876 L217.722,83.876 L217.722,89 L216.826,89 L216.644,88.51 C216.364,88.86 215.958,89.112 215.468,89.112 C214.978,89.112 214.642,88.986 214.39,88.762 C214.138,88.552 213.97,88.286 213.858,88.006 C213.732,87.684 213.676,87.306 213.69,86.886 L213.69,80.824 C213.704,80.418 213.788,80.04 213.942,79.718 C214.068,79.438 214.25,79.158 214.53,78.948 C214.81,78.738 215.202,78.598 215.706,78.598 C216.21,78.598 216.588,78.738 216.868,78.948 C217.148,79.158 217.344,79.438 217.47,79.718 C217.624,80.04 217.708,80.418 217.722,80.824 L217.722,82.406 L216.21,82.406 Z M113.048,105.112 L122.72,105.112 L122.72,107.392 L113.048,107.392 L113.048,105.112 Z M131.328,100.024 L131.328,97.36 L138.816,97.36 L138.816,100.024 L136.368,100.024 L136.368,115 L133.776,115 L133.776,100.024 L131.328,100.024 Z M146.432,107.32 L144.416,107.32 L144.416,115 L141.824,115 L141.824,97.36 L144.416,97.36 L144.416,104.656 L146.432,104.656 L146.432,97.36 L149.024,97.36 L149.024,115 L146.432,115 L146.432,107.32 Z M152.944,97.36 L158.872,97.36 L158.872,100.024 L155.536,100.024 L155.536,104.656 L157.936,104.656 L157.936,107.488 L155.536,107.488 L155.536,112.336 L158.872,112.336 L158.872,115 L152.944,115 L152.944,97.36 Z M167.288,115 L169.952,97.36 L173.12,97.36 L175.784,115 L173.264,115 L172.784,111.4 L170.288,111.4 L169.808,115 L167.288,115 Z M171.68,103.096 L171.608,102.64 L171.464,102.64 L171.392,103.096 L170.648,108.664 L172.424,108.664 L171.68,103.096 Z M182.176,115 L180.16,115 L177.784,97.36 L180.184,97.36 L181.216,106.528 L181.264,107.104 L181.456,107.104 L181.528,106.528 L182.632,97.36 L184.504,97.36 L185.608,106.528 L185.68,107.104 L185.872,107.104 L185.92,106.528 L186.952,97.36 L189.352,97.36 L186.976,115 L184.96,115 L183.76,106.648 L183.616,105.616 L183.52,105.616 L183.376,106.648 L182.176,115 Z M192.6,97.36 L198.528,97.36 L198.528,100.024 L195.192,100.024 L195.192,104.656 L197.592,104.656 L197.592,107.488 L195.192,107.488 L195.192,112.336 L198.528,112.336 L198.528,115 L192.6,115 L192.6,97.36 Z M206.264,102.088 C206.264,101.512 206.24,100.864 206.072,100.36 C205.904,99.88 205.64,99.544 205.232,99.544 C204.56,99.568 204.344,100.264 204.344,101.296 C204.344,101.896 204.608,102.52 204.992,103.192 C205.376,103.864 205.88,104.56 206.384,105.304 C206.984,106.192 207.584,107.104 208.04,107.992 C208.496,108.88 208.808,109.792 208.808,110.752 C208.808,111.928 208.616,113.032 208.064,113.848 C207.512,114.664 206.624,115.192 205.208,115.192 C203.552,115.192 202.616,114.568 202.088,113.608 C201.56,112.648 201.44,111.376 201.44,110.056 L203.984,109.816 C203.984,110.56 204.008,111.304 204.2,111.856 C204.368,112.432 204.656,112.816 205.208,112.816 C205.976,112.816 206.264,112 206.264,110.872 C206.264,110.296 205.976,109.624 205.592,108.928 C205.376,108.592 205.16,108.232 204.92,107.872 C204.416,107.152 203.864,106.336 203.288,105.448 C202.712,104.56 202.28,103.648 202.016,102.712 C201.872,102.256 201.8,101.776 201.8,101.296 C201.8,100.336 202.016,99.304 202.568,98.512 C203.12,97.744 203.96,97.192 205.184,97.168 C206.744,97.144 207.656,97.792 208.16,98.728 C208.664,99.688 208.808,100.864 208.808,101.848 L206.264,102.088 Z M218.944,111.376 C218.92,112.096 218.776,112.744 218.512,113.296 C218.296,113.776 217.96,114.232 217.48,114.592 C217,114.976 216.352,115.192 215.488,115.192 C214.624,115.192 213.952,114.976 213.472,114.592 C212.992,114.232 212.68,113.776 212.464,113.296 C212.2,112.744 212.056,112.096 212.032,111.376 L212.032,100.984 C212.056,100.288 212.2,99.64 212.464,99.088 C212.68,98.608 212.992,98.128 213.472,97.768 C213.952,97.408 214.624,97.168 215.488,97.168 C216.352,97.168 217,97.408 217.48,97.768 C217.96,98.128 218.296,98.608 218.512,99.088 C218.776,99.64 218.92,100.288 218.944,100.984 L218.944,111.376 Z M216.352,100.984 C216.352,100.504 216.256,100.168 216.016,99.88 C215.896,99.76 215.704,99.688 215.488,99.688 C215.032,99.688 214.816,100.024 214.72,100.336 C214.648,100.528 214.624,100.744 214.624,100.984 L214.624,111.376 C214.624,111.88 214.744,112.216 214.984,112.48 C215.104,112.6 215.272,112.672 215.488,112.672 C215.944,112.672 216.16,112.384 216.256,112.024 C216.328,111.856 216.352,111.64 216.352,111.376 L216.352,100.984 Z M226.992,115 L225.336,103.912 L225.24,103.168 L225.096,103.168 L225.096,115 L222.696,115 L222.696,97.36 L225.864,97.36 L227.4,105.424 L227.52,106.36 L227.568,106.36 L227.688,105.424 L229.224,97.36 L232.392,97.36 L232.392,115 L229.992,115 L229.992,103.168 L229.848,103.168 L229.752,103.912 L228.096,115 L226.992,115 Z M236.312,97.36 L242.24,97.36 L242.24,100.024 L238.904,100.024 L238.904,104.656 L241.304,104.656 L241.304,107.488 L238.904,107.488 L238.904,112.336 L242.24,112.336 L242.24,115 L236.312,115 L236.312,97.36 Z M251.28,105.112 L260.952,105.112 L260.952,107.392 L251.28,107.392 L251.28,105.112 Z" id="Presenting--the-Awe" fill="#421669"></path>
    </g>
</svg>